MasterSet_Kanji_75-w0.00.ufo
<glyph name="c13498" format="1">
	<advance width="750"/>
	<outline>
		<contour>
			<point x="39" y="26" type="line"/>
			<point x="41" y="-3" type="line"/>
			<point x="706" y="32" type="line"/>
			<point x="705" y="61" type="line"/>
		</contour>
		<contour>
			<point x="42" y="761" type="line"/>
			<point x="42" y="731" type="line"/>
			<point x="707" y="731" type="line"/>
			<point x="707" y="761" type="line"/>
		</contour>
		<contour>
			<point x="38" y="390" type="line"/>
			<point x="38" y="360" type="line"/>
			<point x="714" y="360" type="line"/>
			<point x="714" y="390" type="line"/>
		</contour>
		<contour>
			<point x="170" y="276" type="line"/>
			<point x="170" y="246" type="line"/>
			<point x="578" y="246" type="line"/>
			<point x="578" y="276" type="line"/>
		</contour>
		<contour>
			<point x="170" y="161" type="line"/>
			<point x="170" y="131" type="line"/>
			<point x="578" y="131" type="line"/>
			<point x="578" y="161" type="line"/>
		</contour>
		<contour>
			<point x="233" y="839" type="line"/>
			<point x="233" y="663" type="line"/>
			<point x="255" y="663" type="line"/>
			<point x="255" y="839" type="line"/>
		</contour>
		<contour>
			<point x="491" y="839" type="line"/>
			<point x="491" y="663" type="line"/>
			<point x="514" y="663" type="line"/>
			<point x="514" y="839" type="line"/>
		</contour>
		<contour>
			<point x="569" y="381" type="line"/>
			<point x="569" y="-83" type="line"/>
			<point x="591" y="-83" type="line"/>
			<point x="591" y="381" type="line"/>
		</contour>
		<contour>
			<point x="157" y="381" type="line"/>
			<point x="157" y="16" type="line"/>
			<point x="179" y="16" type="line"/>
			<point x="179" y="381" type="line"/>
		</contour>
		<contour>
			<point x="161" y="611" type="line"/>
			<point x="587" y="611" type="line"/>
			<point x="587" y="493" type="line"/>
			<point x="161" y="493" type="line"/>
		</contour>
		<contour>
			<point x="139" y="641" type="line"/>
			<point x="139" y="463" type="line"/>
			<point x="610" y="463" type="line"/>
			<point x="610" y="641" type="line"/>
		</contour>
	</outline>
</glyph>
<glyph name="c13887" format="1">
	<advance width="750"/>
	<outline>
		<contour>
			<point x="239" y="394" type="line"/>
			<point x="239" y="364" type="line"/>
			<point x="681" y="364" type="line"/>
			<point x="681" y="394" type="line"/>
		</contour>
		<contour>
			<point x="206" y="238" type="line"/>
			<point x="206" y="208" type="line"/>
			<point x="713" y="208" type="line"/>
			<point x="713" y="238" type="line"/>
		</contour>
		<contour>
			<point x="355" y="488" type="line"/>
			<point x="355" y="222" type="line"/>
			<point x="377" y="222" type="line"/>
			<point x="377" y="488" type="line"/>
		</contour>
		<contour>
			<point x="539" y="488" type="line"/>
			<point x="539" y="222" type="line"/>
			<point x="562" y="222" type="line"/>
			<point x="562" y="488" type="line"/>
		</contour>
		<contour>
			<point x="233" y="791" type="line"/>
			<point x="233" y="561" type="line"/>
			<point x="233" y="516"/>
			<point x="245" y="509"/>
			<point x="289" y="509" type="curve"/>
			<point x="298" y="509"/>
			<point x="392" y="509"/>
			<point x="401" y="509" type="curve"/>
			<point x="434" y="509"/>
			<point x="442" y="525"/>
			<point x="444" y="587" type="curve"/>
			<point x="437" y="590"/>
			<point x="429" y="593"/>
			<point x="423" y="599" type="curve"/>
			<point x="422" y="544"/>
			<point x="418" y="537"/>
			<point x="398" y="537" type="curve"/>
			<point x="380" y="537"/>
			<point x="302" y="537"/>
			<point x="289" y="537" type="curve"/>
			<point x="260" y="537"/>
			<point x="255" y="541"/>
			<point x="255" y="561" type="curve"/>
			<point x="255" y="791" type="line"/>
		</contour>
		<contour>
			<point x="486" y="791" type="line"/>
			<point x="486" y="562" type="line"/>
			<point x="486" y="516"/>
			<point x="499" y="509"/>
			<point x="545" y="509" type="curve"/>
			<point x="555" y="509"/>
			<point x="656" y="509"/>
			<point x="666" y="509" type="curve"/>
			<point x="701" y="509"/>
			<point x="710" y="525"/>
			<point x="712" y="593" type="curve"/>
			<point x="705" y="595"/>
			<point x="697" y="599"/>
			<point x="691" y="604" type="curve"/>
			<point x="689" y="545"/>
			<point x="685" y="537"/>
			<point x="663" y="537" type="curve"/>
			<point x="644" y="537"/>
			<point x="559" y="537"/>
			<point x="545" y="537" type="curve"/>
			<point x="514" y="537"/>
			<point x="509" y="542"/>
			<point x="509" y="562" type="curve"/>
			<point x="509" y="791" type="line"/>
		</contour>
		<contour>
			<point x="507" y="170" type="line"/>
			<point x="575" y="128"/>
			<point x="642" y="74"/>
			<point x="682" y="28" type="curve"/>
			<point x="701" y="49" type="line"/>
			<point x="659" y="95"/>
			<point x="590" y="148"/>
			<point x="522" y="189" type="curve"/>
		</contour>
		<contour>
			<point x="391" y="189" type="line"/>
			<point x="350" y="136"/>
			<point x="287" y="85"/>
			<point x="230" y="49" type="curve"/>
			<point x="236" y="44"/>
			<point x="245" y="32"/>
			<point x="248" y="27" type="curve"/>
			<point x="303" y="65"/>
			<point x="368" y="123"/>
			<point x="413" y="179" type="curve"/>
		</contour>
		<contour>
			<point x="159" y="354" type="line"/>
			<point x="30" y="354" type="line"/>
			<point x="30" y="324" type="line"/>
			<point x="137" y="324" type="line"/>
			<point x="137" y="81" type="line"/>
			<point x="159" y="81" type="line"/>
		</contour>
		<contour>
			<point x="159" y="97" type="curve"/>
			<point x="139" y="97" type="line"/>
			<point x="102" y="46"/>
			<point x="60" y="-7"/>
			<point x="26" y="-45" type="curve"/>
			<point x="42" y="-73" type="line"/>
			<point x="78" y="-28"/>
			<point x="115" y="20"/>
			<point x="149" y="68" type="curve"/>
			<point x="199" y="-13"/>
			<point x="275" y="-55"/>
			<point x="384" y="-60" type="curve"/>
			<point x="465" y="-63"/>
			<point x="635" y="-61"/>
			<point x="713" y="-58" type="curve"/>
			<point x="715" y="-48"/>
			<point x="719" y="-34"/>
			<point x="722" y="-27" type="curve"/>
			<point x="641" y="-32"/>
			<point x="463" y="-34"/>
			<point x="383" y="-31" type="curve"/>
			<point x="282" y="-26"/>
			<point x="202" y="14"/>
		</contour>
		<contour>
			<point x="62" y="802" type="line"/>
			<point x="109" y="770"/>
			<point x="161" y="720"/>
			<point x="186" y="680" type="curve"/>
			<point x="202" y="702" type="line"/>
			<point x="177" y="742"/>
			<point x="124" y="791"/>
			<point x="77" y="822" type="curve"/>
		</contour>
		<contour>
			<point x="36" y="593" type="line"/>
			<point x="86" y="562"/>
			<point x="141" y="512"/>
			<point x="167" y="473" type="curve"/>
			<point x="182" y="497" type="line"/>
			<point x="156" y="536"/>
			<point x="100" y="585"/>
			<point x="50" y="614" type="curve"/>
		</contour>
		<contour>
			<point x="243" y="791" type="line"/>
			<point x="243" y="761" type="line"/>
			<point x="406" y="761" type="line"/>
			<point x="406" y="670" type="line"/>
			<point x="243" y="670" type="line"/>
			<point x="243" y="640" type="line"/>
			<point x="428" y="640" type="line"/>
			<point x="428" y="791" type="line"/>
		</contour>
		<contour>
			<point x="497" y="791" type="line"/>
			<point x="497" y="761" type="line"/>
			<point x="662" y="761" type="line"/>
			<point x="662" y="670" type="line"/>
			<point x="497" y="670" type="line"/>
			<point x="497" y="640" type="line"/>
			<point x="684" y="640" type="line"/>
			<point x="684" y="791" type="line"/>
		</contour>
	</outline>
</glyph>
<glyph name="c14066" format="1">
	<advance width="750"/>
	<outline>
		<contour>
			<point x="519" y="746" type="line"/>
			<point x="519" y="-80" type="line"/>
			<point x="542" y="-80" type="line"/>
			<point x="542" y="716" type="line"/>
			<point x="688" y="716" type="line"/>
			<point x="688" y="746" type="line"/>
		</contour>
		<contour>
			<point x="681" y="746" type="line"/>
			<point x="681" y="172" type="line"/>
			<point x="681" y="159"/>
			<point x="677" y="155"/>
			<point x="668" y="154" type="curve"/>
			<point x="658" y="154"/>
			<point x="624" y="153"/>
			<point x="582" y="155" type="curve"/>
			<point x="586" y="146"/>
			<point x="590" y="134"/>
			<point x="592" y="127" type="curve"/>
			<point x="642" y="126"/>
			<point x="670" y="126"/>
			<point x="684" y="132" type="curve"/>
			<point x="698" y="138"/>
			<point x="704" y="148"/>
			<point x="704" y="172" type="curve"/>
			<point x="704" y="746" type="line"/>
		</contour>
		<contour>
			<point x="38" y="612" type="line"/>
			<point x="38" y="582" type="line"/>
			<point x="275" y="582" type="line"/>
			<point x="275" y="612" type="line"/>
		</contour>
		<contour>
			<point x="335" y="675" type="line"/>
			<point x="335" y="645" type="line"/>
			<point x="471" y="645" type="line"/>
			<point x="471" y="675" type="line"/>
		</contour>
		<contour>
			<point x="157" y="840" type="line"/>
			<point x="157" y="-78" type="line"/>
			<point x="179" y="-78" type="line"/>
			<point x="179" y="840" type="line"/>
		</contour>
		<contour>
			<point x="152" y="602" type="line"/>
			<point x="129" y="442"/>
			<point x="74" y="249"/>
			<point x="23" y="154" type="curve"/>
			<point x="28" y="149"/>
			<point x="35" y="138"/>
			<point x="40" y="130" type="curve"/>
			<point x="92" y="231"/>
			<point x="148" y="434"/>
			<point x="173" y="594" type="curve"/>
		</contour>
		<contour>
			<point x="175" y="590" type="curve"/>
			<point x="160" y="574" type="line"/>
			<point x="175" y="547"/>
			<point x="221" y="444"/>
			<point x="233" y="408" type="curve"/>
			<point x="251" y="440" type="line"/>
			<point x="239" y="464"/>
			<point x="188" y="567"/>
		</contour>
		<contour>
			<point x="343" y="824" type="line"/>
			<point x="328" y="669"/>
			<point x="297" y="468"/>
			<point x="234" y="339" type="curve"/>
			<point x="239" y="333"/>
			<point x="246" y="323"/>
			<point x="250" y="317" type="curve"/>
			<point x="316" y="451"/>
			<point x="349" y="657"/>
			<point x="367" y="819" type="curve"/>
		</contour>
		<contour>
			<point x="463" y="675" type="line"/>
			<point x="463" y="665" type="line"/>
			<point x="439" y="311"/>
			<point x="363" y="71"/>
			<point x="257" y="-56" type="curve"/>
			<point x="263" y="-61"/>
			<point x="271" y="-71"/>
			<point x="275" y="-79" type="curve"/>
			<point x="383" y="54"/>
			<point x="461" y="297"/>
			<point x="487" y="670" type="curve"/>
			<point x="473" y="676" type="line"/>
			<point x="467" y="675" type="line"/>
		</contour>
		<contour>
			<point x="283" y="445" type="line"/>
			<point x="335" y="395"/>
			<point x="392" y="321"/>
			<point x="419" y="270" type="curve"/>
			<point x="432" y="295" type="line"/>
			<point x="406" y="344"/>
			<point x="348" y="416"/>
			<point x="296" y="466" type="curve"/>
		</contour>
	</outline>
</glyph>
<glyph name="c14872" format="1">
	<advance width="750"/>
	<outline>
		<contour>
			<point x="71" y="355" type="line"/>
			<point x="71" y="325" type="line"/>
			<point x="376" y="325" type="line"/>
			<point x="376" y="355" type="line"/>
		</contour>
		<contour>
			<point x="404" y="621" type="line"/>
			<point x="404" y="591" type="line"/>
			<point x="701" y="591" type="line"/>
			<point x="701" y="621" type="line"/>
		</contour>
		<contour>
			<point x="460" y="842" type="line"/>
			<point x="441" y="761"/>
			<point x="408" y="684"/>
			<point x="368" y="631" type="curve"/>
			<point x="374" y="627"/>
			<point x="383" y="617"/>
			<point x="387" y="612" type="curve"/>
			<point x="426" y="667"/>
			<point x="462" y="749"/>
			<point x="482" y="836" type="curve"/>
		</contour>
		<contour>
			<point x="71" y="784" type="line"/>
			<point x="71" y="339" type="line"/>
			<point x="94" y="339" type="line"/>
			<point x="94" y="754" type="line"/>
			<point x="368" y="754" type="line"/>
			<point x="368" y="784" type="line"/>
		</contour>
		<contour>
			<point x="85" y="651" type="line"/>
			<point x="85" y="621" type="line"/>
			<point x="333" y="621" type="line"/>
			<point x="333" y="489" type="line"/>
			<point x="85" y="489" type="line"/>
			<point x="85" y="459" type="line"/>
			<point x="356" y="459" type="line"/>
			<point x="356" y="651" type="line"/>
		</contour>
		<contour>
			<point x="212" y="776" type="line"/>
			<point x="212" y="632" type="line"/>
			<point x="234" y="632" type="line"/>
			<point x="234" y="776" type="line"/>
		</contour>
		<contour>
			<point x="542" y="707" type="line"/>
			<point x="542" y="486" type="line"/>
			<point x="564" y="486" type="line"/>
			<point x="564" y="707" type="line"/>
		</contour>
		<contour>
			<point x="212" y="482" type="line"/>
			<point x="212" y="333" type="line"/>
			<point x="234" y="333" type="line"/>
			<point x="234" y="482" type="line"/>
		</contour>
		<contour>
			<point x="441" y="752" type="line"/>
			<point x="436" y="722" type="line"/>
			<point x="712" y="722" type="line"/>
			<point x="712" y="752" type="line"/>
		</contour>
		<contour>
			<point x="447" y="475" type="line"/>
			<point x="664" y="475" type="line"/>
			<point x="664" y="345" type="line"/>
			<point x="447" y="345" type="line"/>
		</contour>
		<contour>
			<point x="425" y="505" type="line"/>
			<point x="425" y="315" type="line"/>
			<point x="686" y="315" type="line"/>
			<point x="686" y="505" type="line"/>
		</contour>
		<contour>
			<point x="30" y="-15" type="line"/>
			<point x="30" y="-45" type="line"/>
			<point x="722" y="-45" type="line"/>
			<point x="722" y="-15" type="line"/>
		</contour>
		<contour>
			<point x="125" y="239" type="line"/>
			<point x="125" y="-31" type="line"/>
			<point x="147" y="-31" type="line"/>
			<point x="147" y="209" type="line"/>
			<point x="284" y="209" type="line"/>
			<point x="284" y="-31" type="line"/>
			<point x="306" y="-31" type="line"/>
			<point x="306" y="209" type="line"/>
			<point x="444" y="209" type="line"/>
			<point x="444" y="-31" type="line"/>
			<point x="467" y="-31" type="line"/>
			<point x="467" y="209" type="line"/>
			<point x="605" y="209" type="line"/>
			<point x="605" y="-31" type="line"/>
			<point x="628" y="-31" type="line"/>
			<point x="628" y="239" type="line"/>
		</contour>
	</outline>
</glyph>
<glyph name="c14879" format="1">
	<advance width="750"/>
	<outline>
		<contour>
			<point x="70" y="771" type="line"/>
			<point x="70" y="741" type="line"/>
			<point x="228" y="741" type="line"/>
			<point x="228" y="126" type="line"/>
			<point x="70" y="126" type="line"/>
			<point x="70" y="96" type="line"/>
			<point x="251" y="96" type="line"/>
			<point x="251" y="771" type="line"/>
		</contour>
		<contour>
			<point x="68" y="560" type="line"/>
			<point x="68" y="530" type="line"/>
			<point x="241" y="530" type="line"/>
			<point x="241" y="560" type="line"/>
		</contour>
		<contour>
			<point x="68" y="346" type="line"/>
			<point x="68" y="316" type="line"/>
			<point x="241" y="316" type="line"/>
			<point x="241" y="346" type="line"/>
		</contour>
		<contour>
			<point x="58" y="771" type="line"/>
			<point x="58" y="1" type="line"/>
			<point x="80" y="1" type="line"/>
			<point x="80" y="771" type="line"/>
		</contour>
		<contour>
			<point x="280" y="-21" type="line"/>
			<point x="280" y="-51" type="line"/>
			<point x="719" y="-51" type="line"/>
			<point x="719" y="-21" type="line"/>
		</contour>
		<contour>
			<point x="329" y="162" type="line"/>
			<point x="329" y="131" type="line"/>
			<point x="683" y="131" type="line"/>
			<point x="683" y="162" type="line"/>
		</contour>
		<contour>
			<point x="350" y="610" type="line"/>
			<point x="653" y="610" type="line"/>
			<point x="653" y="482" type="line"/>
			<point x="350" y="482" type="line"/>
		</contour>
		<contour>
			<point x="350" y="766" type="line"/>
			<point x="653" y="766" type="line"/>
			<point x="653" y="640" type="line"/>
			<point x="350" y="640" type="line"/>
		</contour>
		<contour>
			<point x="328" y="796" type="line"/>
			<point x="328" y="452" type="line"/>
			<point x="675" y="452" type="line"/>
			<point x="675" y="796" type="line"/>
		</contour>
		<contour>
			<point x="493" y="425" type="line"/>
			<point x="493" y="-34" type="line"/>
			<point x="515" y="-34" type="line"/>
			<point x="515" y="425" type="line"/>
		</contour>
		<contour>
			<point x="370" y="427" type="line"/>
			<point x="347" y="340"/>
			<point x="311" y="257"/>
			<point x="267" y="200" type="curve"/>
			<point x="273" y="195"/>
			<point x="283" y="185"/>
			<point x="287" y="181" type="curve"/>
			<point x="329" y="240"/>
			<point x="368" y="329"/>
			<point x="392" y="420" type="curve"/>
		</contour>
		<contour>
			<point x="349" y="320" type="line"/>
			<point x="338" y="290" type="line"/>
			<point x="697" y="290" type="line"/>
			<point x="697" y="320" type="line"/>
		</contour>
	</outline>
</glyph>
<glyph name="c15147" format="1">
	<advance width="750"/>
	<outline>
		<contour>
			<point x="308" y="800" type="line"/>
			<point x="308" y="525" type="line"/>
			<point x="308" y="480"/>
			<point x="319" y="472"/>
			<point x="358" y="472" type="curve"/>
			<point x="366" y="472"/>
			<point x="441" y="472"/>
			<point x="449" y="472" type="curve"/>
			<point x="482" y="472"/>
			<point x="490" y="492"/>
			<point x="492" y="568" type="curve"/>
			<point x="485" y="570"/>
			<point x="476" y="575"/>
			<point x="470" y="581" type="curve"/>
			<point x="469" y="511"/>
			<point x="466" y="502"/>
			<point x="447" y="502" type="curve"/>
			<point x="431" y="502"/>
			<point x="369" y="502"/>
			<point x="358" y="502" type="curve"/>
			<point x="334" y="502"/>
			<point x="330" y="506"/>
			<point x="330" y="525" type="curve"/>
			<point x="330" y="800" type="line"/>
		</contour>
		<contour>
			<point x="308" y="326" type="line"/>
			<point x="308" y="296" type="line"/>
			<point x="710" y="296" type="line"/>
			<point x="710" y="326" type="line"/>
		</contour>
		<contour>
			<point x="284" y="148" type="line"/>
			<point x="284" y="118" type="line"/>
			<point x="723" y="118" type="line"/>
			<point x="723" y="148" type="line"/>
		</contour>
		<contour>
			<point x="407" y="441" type="line"/>
			<point x="407" y="135" type="line"/>
			<point x="429" y="135" type="line"/>
			<point x="429" y="441" type="line"/>
		</contour>
		<contour>
			<point x="582" y="441" type="line"/>
			<point x="582" y="135" type="line"/>
			<point x="605" y="135" type="line"/>
			<point x="605" y="441" type="line"/>
		</contour>
		<contour>
			<point x="318" y="800" type="line"/>
			<point x="318" y="770" type="line"/>
			<point x="461" y="770" type="line"/>
			<point x="461" y="657" type="line"/>
			<point x="318" y="657" type="line"/>
			<point x="318" y="627" type="line"/>
			<point x="483" y="627" type="line"/>
			<point x="483" y="800" type="line"/>
		</contour>
		<contour>
			<point x="525" y="800" type="line"/>
			<point x="525" y="526" type="line"/>
			<point x="525" y="480"/>
			<point x="537" y="472"/>
			<point x="578" y="472" type="curve"/>
			<point x="587" y="472"/>
			<point x="670" y="472"/>
			<point x="679" y="472" type="curve"/>
			<point x="713" y="472"/>
			<point x="722" y="492"/>
			<point x="724" y="569" type="curve"/>
			<point x="716" y="572"/>
			<point x="708" y="576"/>
			<point x="702" y="582" type="curve"/>
			<point x="700" y="512"/>
			<point x="697" y="502"/>
			<point x="677" y="502" type="curve"/>
			<point x="660" y="502"/>
			<point x="590" y="502"/>
			<point x="578" y="502" type="curve"/>
			<point x="551" y="502"/>
			<point x="548" y="507"/>
			<point x="548" y="526" type="curve"/>
			<point x="548" y="800" type="line"/>
		</contour>
		<contour>
			<point x="536" y="800" type="line"/>
			<point x="536" y="770" type="line"/>
			<point x="678" y="770" type="line"/>
			<point x="678" y="654" type="line"/>
			<point x="536" y="654" type="line"/>
			<point x="536" y="624" type="line"/>
			<point x="701" y="624" type="line"/>
			<point x="701" y="800" type="line"/>
		</contour>
		<contour>
			<point x="419" y="78" type="line"/>
			<point x="385" y="23"/>
			<point x="326" y="-28"/>
			<point x="271" y="-62" type="curve"/>
			<point x="276" y="-67"/>
			<point x="285" y="-80"/>
			<point x="288" y="-86" type="curve"/>
			<point x="342" y="-49"/>
			<point x="404" y="9"/>
			<point x="441" y="69" type="curve"/>
		</contour>
		<contour>
			<point x="572" y="59" type="line"/>
			<point x="620" y="16"/>
			<point x="677" y="-46"/>
			<point x="707" y="-85" type="curve"/>
			<point x="725" y="-64" type="line"/>
			<point x="695" y="-26"/>
			<point x="636" y="34"/>
			<point x="589" y="76" type="curve"/>
		</contour>
		<contour>
			<point x="60" y="535" type="line"/>
			<point x="60" y="505" type="line"/>
			<point x="260" y="505" type="line"/>
			<point x="260" y="535" type="line"/>
		</contour>
		<contour>
			<point x="64" y="799" type="line"/>
			<point x="64" y="769" type="line"/>
			<point x="257" y="769" type="line"/>
			<point x="257" y="799" type="line"/>
		</contour>
		<contour>
			<point x="60" y="401" type="line"/>
			<point x="60" y="371" type="line"/>
			<point x="260" y="371" type="line"/>
			<point x="260" y="401" type="line"/>
		</contour>
		<contour>
			<point x="29" y="669" type="line"/>
			<point x="29" y="639" type="line"/>
			<point x="279" y="639" type="line"/>
			<point x="279" y="669" type="line"/>
		</contour>
		<contour>
			<point x="71" y="267" type="line"/>
			<point x="71" y="237" type="line"/>
			<point x="236" y="237" type="line"/>
			<point x="236" y="12" type="line"/>
			<point x="71" y="12" type="line"/>
			<point x="71" y="-18" type="line"/>
			<point x="259" y="-18" type="line"/>
			<point x="259" y="267" type="line"/>
		</contour>
		<contour>
			<point x="60" y="267" type="line"/>
			<point x="60" y="-71" type="line"/>
			<point x="83" y="-71" type="line"/>
			<point x="83" y="267" type="line"/>
		</contour>
	</outline>
</glyph>
<glyph name="c15202" format="1">
	<advance width="750"/>
	<outline>
		<contour>
			<point x="86" y="743" type="line"/>
			<point x="86" y="713" type="line"/>
			<point x="467" y="713" type="line"/>
			<point x="467" y="743" type="line"/>
		</contour>
		<contour>
			<point x="160" y="215" type="line"/>
			<point x="160" y="185" type="line"/>
			<point x="272" y="185" type="line"/>
			<point x="272" y="215" type="line"/>
		</contour>
		<contour>
			<point x="251" y="838" type="line"/>
			<point x="251" y="725" type="line"/>
			<point x="273" y="725" type="line"/>
			<point x="273" y="838" type="line"/>
		</contour>
		<contour>
			<point x="191" y="684" type="line"/>
			<point x="191" y="373" type="line"/>
			<point x="214" y="373" type="line"/>
			<point x="214" y="684" type="line"/>
		</contour>
		<contour>
			<point x="314" y="684" type="line"/>
			<point x="314" y="373" type="line"/>
			<point x="337" y="373" type="line"/>
			<point x="337" y="684" type="line"/>
		</contour>
		<contour>
			<point x="74" y="743" type="line"/>
			<point x="74" y="391" type="line"/>
			<point x="74" y="260"/>
			<point x="69" y="87"/>
			<point x="19" y="-37" type="curve"/>
			<point x="24" y="-40"/>
			<point x="34" y="-48"/>
			<point x="38" y="-54" type="curve"/>
			<point x="89" y="73"/>
			<point x="96" y="257"/>
			<point x="96" y="391" type="curve"/>
			<point x="96" y="743" type="line"/>
		</contour>
		<contour>
			<point x="86" y="583" type="line"/>
			<point x="86" y="553" type="line"/>
			<point x="435" y="553" type="line"/>
			<point x="435" y="394" type="line"/>
			<point x="86" y="394" type="line"/>
			<point x="86" y="364" type="line"/>
			<point x="458" y="364" type="line"/>
			<point x="458" y="583" type="line"/>
		</contour>
		<contour>
			<point x="144" y="338" type="line"/>
			<point x="144" y="-41" type="line"/>
			<point x="167" y="-37" type="line"/>
			<point x="167" y="338" type="line"/>
		</contour>
		<contour>
			<point x="86" y="-41" type="curve"/>
			<point x="92" y="-71" type="line"/>
			<point x="146" y="-54"/>
			<point x="213" y="-32"/>
			<point x="281" y="-10" type="curve"/>
			<point x="280" y="19" type="line"/>
			<point x="206" y="-4"/>
			<point x="136" y="-27"/>
		</contour>
		<contour>
			<point x="302" y="342" type="line"/>
			<point x="302" y="-6" type="line"/>
			<point x="302" y="-51"/>
			<point x="312" y="-60"/>
			<point x="349" y="-60" type="curve"/>
			<point x="356" y="-60"/>
			<point x="418" y="-60"/>
			<point x="426" y="-60" type="curve"/>
			<point x="458" y="-60"/>
			<point x="465" y="-36"/>
			<point x="467" y="63" type="curve"/>
			<point x="461" y="65"/>
			<point x="452" y="70"/>
			<point x="446" y="76" type="curve"/>
			<point x="445" y="-18"/>
			<point x="442" y="-33"/>
			<point x="424" y="-33" type="curve"/>
			<point x="410" y="-33"/>
			<point x="359" y="-33"/>
			<point x="350" y="-33" type="curve"/>
			<point x="329" y="-33"/>
			<point x="325" y="-29"/>
			<point x="325" y="-7" type="curve"/>
			<point x="325" y="342" type="line"/>
		</contour>
		<contour>
			<point x="437" y="268" type="line"/>
			<point x="405" y="240"/>
			<point x="348" y="196"/>
			<point x="308" y="172" type="curve"/>
			<point x="321" y="153" type="line"/>
			<point x="361" y="175"/>
			<point x="416" y="210"/>
			<point x="454" y="245" type="curve"/>
		</contour>
		<contour>
			<point x="503" y="770" type="line"/>
			<point x="503" y="-81" type="line"/>
			<point x="525" y="-81" type="line"/>
			<point x="525" y="740" type="line"/>
			<point x="700" y="740" type="line"/>
			<point x="700" y="770" type="line"/>
		</contour>
		<contour>
			<point x="693" y="770" type="line"/>
			<point x="693" y="763" type="line"/>
			<point x="666" y="676"/>
			<point x="623" y="551"/>
			<point x="580" y="439" type="curve"/>
			<point x="664" y="336"/>
			<point x="689" y="257"/>
			<point x="689" y="185" type="curve"/>
			<point x="689" y="146"/>
			<point x="684" y="107"/>
			<point x="666" y="92" type="curve"/>
			<point x="656" y="85"/>
			<point x="644" y="81"/>
			<point x="629" y="79" type="curve"/>
			<point x="611" y="78"/>
			<point x="582" y="78"/>
			<point x="553" y="82" type="curve"/>
			<point x="558" y="72"/>
			<point x="562" y="59"/>
			<point x="563" y="50" type="curve"/>
			<point x="585" y="48"/>
			<point x="614" y="47"/>
			<point x="636" y="50" type="curve"/>
			<point x="653" y="52"/>
			<point x="670" y="58"/>
			<point x="681" y="68" type="curve"/>
			<point x="704" y="88"/>
			<point x="713" y="136"/>
			<point x="713" y="185" type="curve"/>
			<point x="713" y="261"/>
			<point x="689" y="342"/>
			<point x="608" y="444" type="curve"/>
			<point x="646" y="546"/>
			<point x="687" y="664"/>
			<point x="718" y="757" type="curve"/>
			<point x="702" y="772" type="line"/>
			<point x="698" y="770" type="line"/>
		</contour>
	</outline>
</glyph>
<glyph name="c15324" format="1">
	<advance width="750"/>
	<outline>
		<contour>
			<point x="166" y="274" type="line"/>
			<point x="166" y="244" type="line"/>
			<point x="585" y="244" type="line"/>
			<point x="585" y="274" type="line"/>
		</contour>
		<contour>
			<point x="62" y="170" type="line"/>
			<point x="62" y="140" type="line"/>
			<point x="687" y="140" type="line"/>
			<point x="687" y="170" type="line"/>
		</contour>
		<contour>
			<point x="380" y="456" type="line"/>
			<point x="380" y="366" type="line"/>
			<point x="402" y="366" type="line"/>
			<point x="402" y="456" type="line"/>
		</contour>
		<contour>
			<point x="480" y="84" type="line"/>
			<point x="544" y="43"/>
			<point x="620" y="-21"/>
			<point x="659" y="-66" type="curve"/>
			<point x="673" y="-41" type="line"/>
			<point x="634" y="3"/>
			<point x="557" y="65"/>
			<point x="494" y="105" type="curve"/>
		</contour>
		<contour>
			<point x="62" y="378" type="line"/>
			<point x="62" y="253" type="line"/>
			<point x="84" y="253" type="line"/>
			<point x="84" y="348" type="line"/>
			<point x="665" y="348" type="line"/>
			<point x="665" y="253" type="line"/>
			<point x="688" y="253" type="line"/>
			<point x="688" y="378" type="line"/>
		</contour>
		<contour>
			<point x="363" y="159" type="line"/>
			<point x="363" y="-40" type="line"/>
			<point x="363" y="-52"/>
			<point x="360" y="-55"/>
			<point x="349" y="-56" type="curve"/>
			<point x="338" y="-57"/>
			<point x="299" y="-57"/>
			<point x="250" y="-56" type="curve"/>
			<point x="254" y="-64"/>
			<point x="257" y="-74"/>
			<point x="259" y="-82" type="curve"/>
			<point x="320" y="-82"/>
			<point x="351" y="-82"/>
			<point x="367" y="-76" type="curve"/>
			<point x="382" y="-71"/>
			<point x="386" y="-61"/>
			<point x="386" y="-39" type="curve"/>
			<point x="386" y="159" type="line"/>
		</contour>
		<contour>
			<point x="214" y="99" type="line"/>
			<point x="172" y="43"/>
			<point x="106" y="-12"/>
			<point x="45" y="-49" type="curve"/>
			<point x="52" y="-54"/>
			<point x="62" y="-64"/>
			<point x="65" y="-69" type="curve"/>
			<point x="122" y="-31"/>
			<point x="191" y="29"/>
			<point x="236" y="89" type="curve"/>
		</contour>
		<contour>
			<point x="115" y="726" type="line"/>
			<point x="115" y="696" type="line"/>
			<point x="359" y="696" type="line"/>
			<point x="359" y="726" type="line"/>
		</contour>
		<contour>
			<point x="115" y="641" type="line"/>
			<point x="115" y="611" type="line"/>
			<point x="359" y="611" type="line"/>
			<point x="359" y="641" type="line"/>
		</contour>
		<contour>
			<point x="38" y="556" type="line"/>
			<point x="38" y="526" type="line"/>
			<point x="413" y="526" type="line"/>
			<point x="413" y="556" type="line"/>
		</contour>
		<contour>
			<point x="104" y="808" type="line"/>
			<point x="104" y="549" type="line"/>
			<point x="126" y="549" type="line"/>
			<point x="126" y="778" type="line"/>
			<point x="380" y="778" type="line"/>
			<point x="380" y="808" type="line"/>
		</contour>
		<contour>
			<point x="148" y="551" type="line"/>
			<point x="139" y="524"/>
			<point x="122" y="481"/>
			<point x="108" y="455" type="curve"/>
			<point x="129" y="444" type="line"/>
			<point x="143" y="471"/>
			<point x="157" y="504"/>
			<point x="170" y="540" type="curve"/>
		</contour>
		<contour>
			<point x="56" y="459" type="curve"/>
			<point x="59" y="427" type="line"/>
			<point x="134" y="432"/>
			<point x="236" y="439"/>
			<point x="339" y="447" type="curve"/>
			<point x="340" y="475" type="line"/>
			<point x="233" y="468"/>
			<point x="128" y="462"/>
		</contour>
		<contour>
			<point x="283" y="512" type="line"/>
			<point x="311" y="483"/>
			<point x="344" y="440"/>
			<point x="358" y="410" type="curve"/>
			<point x="376" y="428" type="line"/>
			<point x="362" y="458"/>
			<point x="329" y="500"/>
			<point x="301" y="528" type="curve"/>
		</contour>
		<contour>
			<point x="635" y="837" type="line"/>
			<point x="578" y="786"/>
			<point x="480" y="739"/>
			<point x="404" y="711" type="curve"/>
			<point x="410" y="705"/>
			<point x="416" y="695"/>
			<point x="420" y="688" type="curve"/>
			<point x="497" y="717"/>
			<point x="594" y="768"/>
			<point x="656" y="823" type="curve"/>
		</contour>
		<contour>
			<point x="656" y="727" type="line"/>
			<point x="602" y="671"/>
			<point x="507" y="624"/>
			<point x="423" y="597" type="curve"/>
			<point x="429" y="591"/>
			<point x="435" y="580"/>
			<point x="440" y="573" type="curve"/>
			<point x="524" y="602"/>
			<point x="620" y="653"/>
			<point x="677" y="714" type="curve"/>
		</contour>
		<contour>
			<point x="692" y="608" type="line"/>
			<point x="640" y="536"/>
			<point x="531" y="487"/>
			<point x="420" y="462" type="curve"/>
			<point x="425" y="455"/>
			<point x="431" y="444"/>
			<point x="435" y="436" type="curve"/>
			<point x="547" y="465"/>
			<point x="659" y="519"/>
			<point x="713" y="595" type="curve"/>
		</contour>
	</outline>
</glyph>
<glyph name="c16877" format="1">
	<advance width="750"/>
	<outline>
		<contour>
			<point x="161" y="519" type="line"/>
			<point x="595" y="519" type="line"/>
			<point x="595" y="444" type="line"/>
			<point x="161" y="444" type="line"/>
		</contour>
		<contour>
			<point x="161" y="622" type="line"/>
			<point x="595" y="622" type="line"/>
			<point x="595" y="549" type="line"/>
			<point x="161" y="549" type="line"/>
		</contour>
		<contour>
			<point x="138" y="652" type="line"/>
			<point x="138" y="414" type="line"/>
			<point x="617" y="414" type="line"/>
			<point x="617" y="652" type="line"/>
		</contour>
		<contour>
			<point x="36" y="346" type="line"/>
			<point x="36" y="316" type="line"/>
			<point x="715" y="316" type="line"/>
			<point x="715" y="346" type="line"/>
		</contour>
		<contour>
			<point x="290" y="429" type="line"/>
			<point x="253" y="331"/>
			<point x="161" y="219"/>
			<point x="26" y="151" type="curve"/>
			<point x="32" y="146"/>
			<point x="38" y="136"/>
			<point x="42" y="129" type="curve"/>
			<point x="181" y="202"/>
			<point x="272" y="315"/>
			<point x="316" y="423" type="curve"/>
		</contour>
		<contour>
			<point x="512" y="338" type="curve"/>
			<point x="494" y="326" type="line"/>
			<point x="542" y="250"/>
			<point x="635" y="172"/>
			<point x="709" y="136" type="curve"/>
			<point x="713" y="144"/>
			<point x="719" y="154"/>
			<point x="725" y="160" type="curve"/>
			<point x="650" y="192"/>
			<point x="558" y="265"/>
		</contour>
		<contour>
			<point x="42" y="761" type="line"/>
			<point x="42" y="731" type="line"/>
			<point x="711" y="731" type="line"/>
			<point x="711" y="761" type="line"/>
		</contour>
		<contour>
			<point x="237" y="839" type="line"/>
			<point x="237" y="677" type="line"/>
			<point x="260" y="677" type="line"/>
			<point x="260" y="839" type="line"/>
		</contour>
		<contour>
			<point x="487" y="839" type="line"/>
			<point x="487" y="677" type="line"/>
			<point x="509" y="677" type="line"/>
			<point x="509" y="839" type="line"/>
		</contour>
		<contour>
			<point x="173" y="173" type="line"/>
			<point x="173" y="143" type="line"/>
			<point x="575" y="143" type="line"/>
			<point x="575" y="173" type="line"/>
		</contour>
		<contour>
			<point x="92" y="78" type="line"/>
			<point x="92" y="48" type="line"/>
			<point x="659" y="48" type="line"/>
			<point x="659" y="78" type="line"/>
		</contour>
		<contour>
			<point x="364" y="255" type="line"/>
			<point x="364" y="-33" type="line"/>
			<point x="364" y="-46"/>
			<point x="362" y="-50"/>
			<point x="349" y="-51" type="curve"/>
			<point x="336" y="-52"/>
			<point x="298" y="-53"/>
			<point x="242" y="-51" type="curve"/>
			<point x="245" y="-61"/>
			<point x="250" y="-71"/>
			<point x="251" y="-81" type="curve"/>
			<point x="311" y="-81"/>
			<point x="347" y="-81"/>
			<point x="365" y="-75" type="curve"/>
			<point x="382" y="-69"/>
			<point x="386" y="-58"/>
			<point x="386" y="-32" type="curve"/>
			<point x="386" y="255" type="line"/>
		</contour>
		<contour>
			<point x="471" y="293" type="line"/>
			<point x="419" y="275"/>
			<point x="317" y="259"/>
			<point x="233" y="251" type="curve"/>
			<point x="236" y="244"/>
			<point x="239" y="234"/>
			<point x="241" y="227" type="curve"/>
			<point x="327" y="234"/>
			<point x="428" y="249"/>
			<point x="494" y="271" type="curve"/>
		</contour>
	</outline>
</glyph>
<glyph name="c17290" format="1">
	<advance width="750"/>
	<outline>
		<contour>
			<point x="245" y="793" type="line"/>
			<point x="245" y="513" type="line"/>
			<point x="245" y="466"/>
			<point x="257" y="458"/>
			<point x="301" y="458" type="curve"/>
			<point x="311" y="458"/>
			<point x="401" y="458"/>
			<point x="410" y="458" type="curve"/>
			<point x="447" y="458"/>
			<point x="455" y="478"/>
			<point x="458" y="560" type="curve"/>
			<point x="450" y="562"/>
			<point x="442" y="567"/>
			<point x="436" y="573" type="curve"/>
			<point x="434" y="498"/>
			<point x="430" y="488"/>
			<point x="408" y="488" type="curve"/>
			<point x="390" y="488"/>
			<point x="314" y="488"/>
			<point x="300" y="488" type="curve"/>
			<point x="272" y="488"/>
			<point x="267" y="492"/>
			<point x="267" y="513" type="curve"/>
			<point x="267" y="793" type="line"/>
		</contour>
		<contour>
			<point x="236" y="329" type="line"/>
			<point x="236" y="299" type="line"/>
			<point x="699" y="299" type="line"/>
			<point x="699" y="329" type="line"/>
		</contour>
		<contour>
			<point x="203" y="151" type="line"/>
			<point x="203" y="121" type="line"/>
			<point x="720" y="121" type="line"/>
			<point x="720" y="151" type="line"/>
		</contour>
		<contour>
			<point x="359" y="435" type="line"/>
			<point x="359" y="129" type="line"/>
			<point x="382" y="129" type="line"/>
			<point x="382" y="435" type="line"/>
		</contour>
		<contour>
			<point x="545" y="435" type="line"/>
			<point x="545" y="129" type="line"/>
			<point x="568" y="129" type="line"/>
			<point x="568" y="435" type="line"/>
		</contour>
		<contour>
			<point x="255" y="793" type="line"/>
			<point x="255" y="763" type="line"/>
			<point x="418" y="763" type="line"/>
			<point x="418" y="647" type="line"/>
			<point x="255" y="647" type="line"/>
			<point x="255" y="617" type="line"/>
			<point x="440" y="617" type="line"/>
			<point x="440" y="793" type="line"/>
		</contour>
		<contour>
			<point x="497" y="793" type="line"/>
			<point x="497" y="513" type="line"/>
			<point x="497" y="466"/>
			<point x="509" y="458"/>
			<point x="554" y="458" type="curve"/>
			<point x="563" y="458"/>
			<point x="657" y="458"/>
			<point x="668" y="458" type="curve"/>
			<point x="704" y="458"/>
			<point x="713" y="478"/>
			<point x="715" y="560" type="curve"/>
			<point x="708" y="562"/>
			<point x="699" y="566"/>
			<point x="693" y="573" type="curve"/>
			<point x="691" y="498"/>
			<point x="687" y="488"/>
			<point x="665" y="488" type="curve"/>
			<point x="646" y="488"/>
			<point x="567" y="488"/>
			<point x="554" y="488" type="curve"/>
			<point x="524" y="488"/>
			<point x="519" y="492"/>
			<point x="519" y="513" type="curve"/>
			<point x="519" y="793" type="line"/>
		</contour>
		<contour>
			<point x="507" y="793" type="line"/>
			<point x="507" y="763" type="line"/>
			<point x="670" y="763" type="line"/>
			<point x="670" y="647" type="line"/>
			<point x="507" y="647" type="line"/>
			<point x="507" y="617" type="line"/>
			<point x="692" y="617" type="line"/>
			<point x="692" y="793" type="line"/>
		</contour>
		<contour>
			<point x="374" y="79" type="line"/>
			<point x="335" y="25"/>
			<point x="267" y="-24"/>
			<point x="206" y="-57" type="curve"/>
			<point x="212" y="-62"/>
			<point x="221" y="-75"/>
			<point x="224" y="-81" type="curve"/>
			<point x="284" y="-45"/>
			<point x="354" y="11"/>
			<point x="396" y="69" type="curve"/>
		</contour>
		<contour>
			<point x="546" y="62" type="line"/>
			<point x="603" y="21"/>
			<point x="671" y="-41"/>
			<point x="705" y="-83" type="curve"/>
			<point x="722" y="-60" type="line"/>
			<point x="687" y="-18"/>
			<point x="619" y="42"/>
			<point x="563" y="81" type="curve"/>
		</contour>
		<contour>
			<point x="188" y="831" type="line"/>
			<point x="148" y="664"/>
			<point x="83" y="500"/>
			<point x="11" y="392" type="curve"/>
			<point x="16" y="386"/>
			<point x="24" y="374"/>
			<point x="27" y="368" type="curve"/>
			<point x="101" y="484"/>
			<point x="167" y="649"/>
			<point x="210" y="824" type="curve"/>
		</contour>
		<contour>
			<point x="125" y="610" type="line"/>
			<point x="125" y="-81" type="line"/>
			<point x="148" y="-81" type="line"/>
			<point x="148" y="637" type="line"/>
			<point x="147" y="639" type="line"/>
		</contour>
	</outline>
</glyph>
<glyph name="c17700" format="1">
	<advance width="750"/>
	<outline>
		<contour>
			<point x="278" y="729" type="line"/>
			<point x="278" y="699" type="line"/>
			<point x="714" y="699" type="line"/>
			<point x="714" y="729" type="line"/>
		</contour>
		<contour>
			<point x="356" y="197" type="line"/>
			<point x="356" y="167" type="line"/>
			<point x="492" y="167" type="line"/>
			<point x="492" y="197" type="line"/>
		</contour>
		<contour>
			<point x="346" y="310" type="line"/>
			<point x="346" y="-37" type="line"/>
			<point x="368" y="-37" type="line"/>
			<point x="368" y="310" type="line"/>
		</contour>
		<contour>
			<point x="467" y="839" type="line"/>
			<point x="467" y="717" type="line"/>
			<point x="490" y="717" type="line"/>
			<point x="490" y="839" type="line"/>
		</contour>
		<contour>
			<point x="404" y="666" type="line"/>
			<point x="404" y="360" type="line"/>
			<point x="427" y="360" type="line"/>
			<point x="427" y="666" type="line"/>
		</contour>
		<contour>
			<point x="542" y="666" type="line"/>
			<point x="542" y="360" type="line"/>
			<point x="565" y="360" type="line"/>
			<point x="565" y="666" type="line"/>
		</contour>
		<contour>
			<point x="686" y="248" type="line"/>
			<point x="647" y="213"/>
			<point x="580" y="164"/>
			<point x="533" y="135" type="curve"/>
			<point x="547" y="116" type="line"/>
			<point x="595" y="145"/>
			<point x="658" y="187"/>
			<point x="702" y="230" type="curve"/>
		</contour>
		<contour>
			<point x="282" y="563" type="line"/>
			<point x="282" y="533" type="line"/>
			<point x="677" y="533" type="line"/>
			<point x="677" y="380" type="line"/>
			<point x="282" y="380" type="line"/>
			<point x="282" y="350" type="line"/>
			<point x="699" y="350" type="line"/>
			<point x="699" y="563" type="line"/>
		</contour>
		<contour>
			<point x="529" y="312" type="line"/>
			<point x="529" y="-20" type="line"/>
			<point x="529" y="-67"/>
			<point x="540" y="-76"/>
			<point x="581" y="-76" type="curve"/>
			<point x="590" y="-76"/>
			<point x="668" y="-76"/>
			<point x="677" y="-76" type="curve"/>
			<point x="713" y="-76"/>
			<point x="720" y="-52"/>
			<point x="722" y="46" type="curve"/>
			<point x="716" y="48"/>
			<point x="707" y="53"/>
			<point x="701" y="59" type="curve"/>
			<point x="699" y="-33"/>
			<point x="695" y="-47"/>
			<point x="674" y="-47" type="curve"/>
			<point x="659" y="-47"/>
			<point x="593" y="-47"/>
			<point x="581" y="-47" type="curve"/>
			<point x="556" y="-47"/>
			<point x="551" y="-43"/>
			<point x="551" y="-20" type="curve"/>
			<point x="551" y="312" type="line"/>
		</contour>
		<contour>
			<point x="283" y="-43" type="curve"/>
			<point x="290" y="-74" type="line"/>
			<point x="350" y="-57"/>
			<point x="427" y="-35"/>
			<point x="503" y="-14" type="curve"/>
			<point x="501" y="15" type="line"/>
			<point x="419" y="-7"/>
			<point x="338" y="-30"/>
		</contour>
		<contour>
			<point x="269" y="729" type="line"/>
			<point x="269" y="414" type="line"/>
			<point x="269" y="269"/>
			<point x="263" y="76"/>
			<point x="194" y="-64" type="curve"/>
			<point x="200" y="-67"/>
			<point x="209" y="-75"/>
			<point x="214" y="-80" type="curve"/>
			<point x="282" y="62"/>
			<point x="292" y="265"/>
			<point x="292" y="414" type="curve"/>
			<point x="292" y="729" type="line"/>
		</contour>
		<contour>
			<point x="19" y="294" type="curve"/>
			<point x="29" y="263" type="line"/>
			<point x="91" y="293"/>
			<point x="176" y="334"/>
			<point x="257" y="373" type="curve"/>
			<point x="253" y="404" type="line"/>
			<point x="165" y="362"/>
			<point x="77" y="320"/>
		</contour>
		<contour>
			<point x="29" y="621" type="line"/>
			<point x="29" y="591" type="line"/>
			<point x="259" y="591" type="line"/>
			<point x="259" y="621" type="line"/>
		</contour>
		<contour>
			<point x="140" y="839" type="line"/>
			<point x="140" y="-32" type="line"/>
			<point x="140" y="-47"/>
			<point x="135" y="-51"/>
			<point x="125" y="-51" type="curve"/>
			<point x="116" y="-52"/>
			<point x="84" y="-52"/>
			<point x="45" y="-51" type="curve"/>
			<point x="49" y="-60"/>
			<point x="53" y="-73"/>
			<point x="54" y="-80" type="curve"/>
			<point x="102" y="-81"/>
			<point x="128" y="-80"/>
			<point x="141" y="-75" type="curve"/>
			<point x="155" y="-69"/>
			<point x="162" y="-59"/>
			<point x="162" y="-32" type="curve"/>
			<point x="162" y="839" type="line"/>
		</contour>
	</outline>
</glyph>
<glyph name="c17751" format="1">
	<advance width="750"/>
	<outline>
		<contour>
			<point x="72" y="764" type="line"/>
			<point x="72" y="734" type="line"/>
			<point x="230" y="734" type="line"/>
			<point x="230" y="156" type="line"/>
			<point x="72" y="156" type="line"/>
			<point x="72" y="126" type="line"/>
			<point x="253" y="126" type="line"/>
			<point x="253" y="764" type="line"/>
		</contour>
		<contour>
			<point x="72" y="466" type="line"/>
			<point x="72" y="436" type="line"/>
			<point x="238" y="436" type="line"/>
			<point x="238" y="466" type="line"/>
		</contour>
		<contour>
			<point x="60" y="764" type="line"/>
			<point x="60" y="44" type="line"/>
			<point x="83" y="44" type="line"/>
			<point x="83" y="764" type="line"/>
		</contour>
		<contour>
			<point x="280" y="-21" type="line"/>
			<point x="280" y="-51" type="line"/>
			<point x="719" y="-51" type="line"/>
			<point x="719" y="-21" type="line"/>
		</contour>
		<contour>
			<point x="329" y="162" type="line"/>
			<point x="329" y="131" type="line"/>
			<point x="683" y="131" type="line"/>
			<point x="683" y="162" type="line"/>
		</contour>
		<contour>
			<point x="350" y="610" type="line"/>
			<point x="653" y="610" type="line"/>
			<point x="653" y="482" type="line"/>
			<point x="350" y="482" type="line"/>
		</contour>
		<contour>
			<point x="350" y="766" type="line"/>
			<point x="653" y="766" type="line"/>
			<point x="653" y="640" type="line"/>
			<point x="350" y="640" type="line"/>
		</contour>
		<contour>
			<point x="328" y="796" type="line"/>
			<point x="328" y="452" type="line"/>
			<point x="675" y="452" type="line"/>
			<point x="675" y="796" type="line"/>
		</contour>
		<contour>
			<point x="493" y="425" type="line"/>
			<point x="493" y="-34" type="line"/>
			<point x="515" y="-34" type="line"/>
			<point x="515" y="425" type="line"/>
		</contour>
		<contour>
			<point x="370" y="427" type="line"/>
			<point x="347" y="340"/>
			<point x="311" y="257"/>
			<point x="267" y="200" type="curve"/>
			<point x="273" y="195"/>
			<point x="283" y="185"/>
			<point x="287" y="181" type="curve"/>
			<point x="329" y="240"/>
			<point x="368" y="329"/>
			<point x="392" y="420" type="curve"/>
		</contour>
		<contour>
			<point x="349" y="320" type="line"/>
			<point x="338" y="290" type="line"/>
			<point x="697" y="290" type="line"/>
			<point x="697" y="320" type="line"/>
		</contour>
	</outline>
</glyph>
<glyph name="c17852" format="1">
	<advance width="750"/>
	<outline>
		<contour>
			<point x="38" y="612" type="line"/>
			<point x="38" y="582" type="line"/>
			<point x="269" y="582" type="line"/>
			<point x="269" y="612" type="line"/>
		</contour>
		<contour>
			<point x="157" y="840" type="line"/>
			<point x="157" y="-78" type="line"/>
			<point x="179" y="-78" type="line"/>
			<point x="179" y="840" type="line"/>
		</contour>
		<contour>
			<point x="152" y="602" type="line"/>
			<point x="129" y="442"/>
			<point x="74" y="249"/>
			<point x="23" y="154" type="curve"/>
			<point x="28" y="149"/>
			<point x="35" y="138"/>
			<point x="40" y="130" type="curve"/>
			<point x="92" y="231"/>
			<point x="148" y="434"/>
			<point x="173" y="594" type="curve"/>
		</contour>
		<contour>
			<point x="176" y="451" type="curve"/>
			<point x="160" y="435" type="line"/>
			<point x="179" y="409"/>
			<point x="233" y="317"/>
			<point x="248" y="284" type="curve"/>
			<point x="266" y="308" type="line"/>
			<point x="253" y="333"/>
			<point x="192" y="429"/>
		</contour>
		<contour>
			<point x="293" y="729" type="line"/>
			<point x="293" y="699" type="line"/>
			<point x="713" y="699" type="line"/>
			<point x="713" y="729" type="line"/>
		</contour>
		<contour>
			<point x="370" y="211" type="line"/>
			<point x="370" y="181" type="line"/>
			<point x="502" y="181" type="line"/>
			<point x="502" y="211" type="line"/>
		</contour>
		<contour>
			<point x="356" y="331" type="line"/>
			<point x="356" y="-34" type="line"/>
			<point x="379" y="-34" type="line"/>
			<point x="379" y="331" type="line"/>
		</contour>
		<contour>
			<point x="480" y="839" type="line"/>
			<point x="480" y="717" type="line"/>
			<point x="503" y="717" type="line"/>
			<point x="503" y="839" type="line"/>
		</contour>
		<contour>
			<point x="416" y="667" type="line"/>
			<point x="416" y="379" type="line"/>
			<point x="439" y="379" type="line"/>
			<point x="439" y="667" type="line"/>
		</contour>
		<contour>
			<point x="550" y="667" type="line"/>
			<point x="550" y="379" type="line"/>
			<point x="572" y="379" type="line"/>
			<point x="572" y="667" type="line"/>
		</contour>
		<contour>
			<point x="689" y="273" type="line"/>
			<point x="650" y="237"/>
			<point x="584" y="189"/>
			<point x="538" y="160" type="curve"/>
			<point x="549" y="139" type="line"/>
			<point x="596" y="167"/>
			<point x="660" y="208"/>
			<point x="703" y="252" type="curve"/>
		</contour>
		<contour>
			<point x="297" y="575" type="line"/>
			<point x="297" y="545" type="line"/>
			<point x="685" y="545" type="line"/>
			<point x="685" y="395" type="line"/>
			<point x="297" y="395" type="line"/>
			<point x="297" y="365" type="line"/>
			<point x="707" y="365" type="line"/>
			<point x="707" y="575" type="line"/>
		</contour>
		<contour>
			<point x="533" y="333" type="line"/>
			<point x="533" y="-11" type="line"/>
			<point x="533" y="-58"/>
			<point x="545" y="-67"/>
			<point x="585" y="-67" type="curve"/>
			<point x="594" y="-67"/>
			<point x="669" y="-67"/>
			<point x="678" y="-67" type="curve"/>
			<point x="714" y="-67"/>
			<point x="722" y="-42"/>
			<point x="724" y="60" type="curve"/>
			<point x="717" y="63"/>
			<point x="709" y="67"/>
			<point x="703" y="73" type="curve"/>
			<point x="701" y="-24"/>
			<point x="698" y="-38"/>
			<point x="676" y="-38" type="curve"/>
			<point x="660" y="-38"/>
			<point x="597" y="-38"/>
			<point x="585" y="-38" type="curve"/>
			<point x="560" y="-38"/>
			<point x="556" y="-33"/>
			<point x="556" y="-11" type="curve"/>
			<point x="556" y="333" type="line"/>
		</contour>
		<contour>
			<point x="296" y="-38" type="curve"/>
			<point x="304" y="-69" type="line"/>
			<point x="362" y="-53"/>
			<point x="437" y="-31"/>
			<point x="511" y="-10" type="curve"/>
			<point x="509" y="19" type="line"/>
			<point x="428" y="-3"/>
			<point x="350" y="-25"/>
		</contour>
		<contour>
			<point x="284" y="729" type="line"/>
			<point x="284" y="413" type="line"/>
			<point x="284" y="271"/>
			<point x="279" y="77"/>
			<point x="224" y="-64" type="curve"/>
			<point x="230" y="-67"/>
			<point x="239" y="-74"/>
			<point x="243" y="-80" type="curve"/>
			<point x="299" y="63"/>
			<point x="307" y="268"/>
			<point x="307" y="413" type="curve"/>
			<point x="307" y="729" type="line"/>
		</contour>
	</outline>
</glyph>
<glyph name="c17986" format="1">
	<advance width="750"/>
	<outline>
		<contour>
			<point x="66" y="806" type="line"/>
			<point x="110" y="775"/>
			<point x="162" y="726"/>
			<point x="188" y="690" type="curve"/>
			<point x="202" y="715" type="line"/>
			<point x="176" y="750"/>
			<point x="125" y="797"/>
			<point x="80" y="827" type="curve"/>
		</contour>
		<contour>
			<point x="29" y="529" type="line"/>
			<point x="77" y="502"/>
			<point x="132" y="458"/>
			<point x="161" y="425" type="curve"/>
			<point x="173" y="451" type="line"/>
			<point x="146" y="484"/>
			<point x="90" y="526"/>
			<point x="42" y="551" type="curve"/>
		</contour>
		<contour>
			<point x="47" y="-46" type="curve"/>
			<point x="68" y="-65" type="line"/>
			<point x="103" y="23"/>
			<point x="147" y="156"/>
			<point x="178" y="260" type="curve"/>
			<point x="160" y="278" type="line"/>
			<point x="128" y="168"/>
			<point x="80" y="32"/>
		</contour>
		<contour>
			<point x="234" y="800" type="line"/>
			<point x="234" y="534" type="line"/>
			<point x="234" y="488"/>
			<point x="246" y="480"/>
			<point x="287" y="480" type="curve"/>
			<point x="296" y="480"/>
			<point x="379" y="480"/>
			<point x="389" y="480" type="curve"/>
			<point x="422" y="480"/>
			<point x="430" y="500"/>
			<point x="433" y="576" type="curve"/>
			<point x="425" y="579"/>
			<point x="417" y="582"/>
			<point x="411" y="589" type="curve"/>
			<point x="409" y="519"/>
			<point x="406" y="510"/>
			<point x="386" y="510" type="curve"/>
			<point x="369" y="510"/>
			<point x="299" y="510"/>
			<point x="287" y="510" type="curve"/>
			<point x="260" y="510"/>
			<point x="257" y="515"/>
			<point x="257" y="534" type="curve"/>
			<point x="257" y="800" type="line"/>
		</contour>
		<contour>
			<point x="214" y="341" type="line"/>
			<point x="214" y="311" type="line"/>
			<point x="697" y="311" type="line"/>
			<point x="697" y="341" type="line"/>
		</contour>
		<contour>
			<point x="183" y="154" type="line"/>
			<point x="183" y="124" type="line"/>
			<point x="720" y="124" type="line"/>
			<point x="720" y="154" type="line"/>
		</contour>
		<contour>
			<point x="343" y="456" type="line"/>
			<point x="343" y="141" type="line"/>
			<point x="365" y="141" type="line"/>
			<point x="365" y="456" type="line"/>
		</contour>
		<contour>
			<point x="535" y="456" type="line"/>
			<point x="535" y="141" type="line"/>
			<point x="557" y="141" type="line"/>
			<point x="557" y="456" type="line"/>
		</contour>
		<contour>
			<point x="245" y="800" type="line"/>
			<point x="245" y="770" type="line"/>
			<point x="401" y="770" type="line"/>
			<point x="401" y="660" type="line"/>
			<point x="245" y="660" type="line"/>
			<point x="245" y="630" type="line"/>
			<point x="423" y="630" type="line"/>
			<point x="423" y="800" type="line"/>
		</contour>
		<contour>
			<point x="477" y="800" type="line"/>
			<point x="477" y="536" type="line"/>
			<point x="477" y="488"/>
			<point x="490" y="480"/>
			<point x="536" y="480" type="curve"/>
			<point x="545" y="480"/>
			<point x="641" y="480"/>
			<point x="650" y="480" type="curve"/>
			<point x="687" y="480"/>
			<point x="695" y="500"/>
			<point x="698" y="577" type="curve"/>
			<point x="691" y="580"/>
			<point x="682" y="584"/>
			<point x="676" y="590" type="curve"/>
			<point x="674" y="520"/>
			<point x="671" y="510"/>
			<point x="648" y="510" type="curve"/>
			<point x="629" y="510"/>
			<point x="548" y="510"/>
			<point x="534" y="510" type="curve"/>
			<point x="504" y="510"/>
			<point x="500" y="515"/>
			<point x="500" y="535" type="curve"/>
			<point x="500" y="800" type="line"/>
		</contour>
		<contour>
			<point x="488" y="800" type="line"/>
			<point x="488" y="770" type="line"/>
			<point x="648" y="770" type="line"/>
			<point x="648" y="657" type="line"/>
			<point x="488" y="657" type="line"/>
			<point x="488" y="627" type="line"/>
			<point x="671" y="627" type="line"/>
			<point x="671" y="800" type="line"/>
		</contour>
		<contour>
			<point x="376" y="91" type="line"/>
			<point x="335" y="32"/>
			<point x="262" y="-22"/>
			<point x="197" y="-57" type="curve"/>
			<point x="203" y="-63"/>
			<point x="212" y="-75"/>
			<point x="215" y="-81" type="curve"/>
			<point x="278" y="-43"/>
			<point x="353" y="17"/>
			<point x="398" y="81" type="curve"/>
		</contour>
		<contour>
			<point x="495" y="74" type="line"/>
			<point x="561" y="29"/>
			<point x="643" y="-38"/>
			<point x="684" y="-80" type="curve"/>
			<point x="702" y="-59" type="line"/>
			<point x="659" y="-16"/>
			<point x="577" y="48"/>
			<point x="512" y="92" type="curve"/>
		</contour>
	</outline>
</glyph>
<glyph name="c18165" format="1">
	<advance width="750"/>
	<outline>
		<contour>
			<point x="148" y="742" type="line"/>
			<point x="148" y="712" type="line"/>
			<point x="716" y="712" type="line"/>
			<point x="716" y="742" type="line"/>
		</contour>
		<contour>
			<point x="135" y="742" type="line"/>
			<point x="135" y="414" type="line"/>
			<point x="135" y="268"/>
			<point x="125" y="83"/>
			<point x="36" y="-51" type="curve"/>
			<point x="41" y="-55"/>
			<point x="50" y="-65"/>
			<point x="53" y="-72" type="curve"/>
			<point x="145" y="67"/>
			<point x="158" y="264"/>
			<point x="158" y="414" type="curve"/>
			<point x="158" y="742" type="line"/>
		</contour>
		<contour>
			<point x="404" y="839" type="line"/>
			<point x="404" y="722" type="line"/>
			<point x="426" y="722" type="line"/>
			<point x="426" y="839" type="line"/>
		</contour>
		<contour>
			<point x="32" y="650" type="line"/>
			<point x="57" y="588"/>
			<point x="80" y="506"/>
			<point x="86" y="454" type="curve"/>
			<point x="108" y="466" type="line"/>
			<point x="102" y="516"/>
			<point x="79" y="597"/>
			<point x="53" y="659" type="curve"/>
		</contour>
		<contour>
			<point x="17" y="253" type="curve"/>
			<point x="29" y="228" type="line"/>
			<point x="67" y="256"/>
			<point x="108" y="289"/>
			<point x="149" y="322" type="curve"/>
			<point x="144" y="347" type="line"/>
			<point x="95" y="310"/>
			<point x="50" y="275"/>
		</contour>
		<contour>
			<point x="198" y="613" type="line"/>
			<point x="198" y="583" type="line"/>
			<point x="705" y="583" type="line"/>
			<point x="705" y="613" type="line"/>
		</contour>
		<contour>
			<point x="190" y="131" type="line"/>
			<point x="190" y="101" type="line"/>
			<point x="717" y="101" type="line"/>
			<point x="717" y="131" type="line"/>
		</contour>
		<contour>
			<point x="342" y="685" type="line"/>
			<point x="342" y="505" type="line"/>
			<point x="365" y="505" type="line"/>
			<point x="365" y="685" type="line"/>
		</contour>
		<contour>
			<point x="534" y="685" type="line"/>
			<point x="534" y="505" type="line"/>
			<point x="557" y="505" type="line"/>
			<point x="557" y="685" type="line"/>
		</contour>
		<contour>
			<point x="272" y="336" type="line"/>
			<point x="626" y="336" type="line"/>
			<point x="626" y="248" type="line"/>
			<point x="272" y="248" type="line"/>
		</contour>
		<contour>
			<point x="272" y="452" type="line"/>
			<point x="626" y="452" type="line"/>
			<point x="626" y="366" type="line"/>
			<point x="272" y="366" type="line"/>
		</contour>
		<contour>
			<point x="250" y="482" type="line"/>
			<point x="250" y="218" type="line"/>
			<point x="648" y="218" type="line"/>
			<point x="648" y="482" type="line"/>
		</contour>
		<contour>
			<point x="437" y="233" type="line"/>
			<point x="421" y="57"/>
			<point x="363" y="-18"/>
			<point x="170" y="-54" type="curve"/>
			<point x="174" y="-60"/>
			<point x="180" y="-73"/>
			<point x="182" y="-80" type="curve"/>
			<point x="379" y="-40"/>
			<point x="441" y="40"/>
			<point x="460" y="233" type="curve"/>
		</contour>
		<contour>
			<point x="476" y="118" type="curve"/>
			<point x="453" y="111" type="line"/>
			<point x="488" y="-2"/>
			<point x="580" y="-59"/>
			<point x="708" y="-82" type="curve"/>
			<point x="711" y="-71"/>
			<point x="717" y="-59"/>
			<point x="723" y="-52" type="curve"/>
			<point x="597" y="-37"/>
			<point x="508" y="15"/>
		</contour>
	</outline>
</glyph>
<glyph name="c18480" format="1">
	<advance width="750"/>
	<outline>
		<contour>
			<point x="44" y="743" type="line"/>
			<point x="44" y="713" type="line"/>
			<point x="709" y="713" type="line"/>
			<point x="709" y="743" type="line"/>
		</contour>
		<contour>
			<point x="236" y="839" type="line"/>
			<point x="236" y="632" type="line"/>
			<point x="259" y="632" type="line"/>
			<point x="259" y="839" type="line"/>
		</contour>
		<contour>
			<point x="488" y="839" type="line"/>
			<point x="488" y="632" type="line"/>
			<point x="510" y="632" type="line"/>
			<point x="510" y="839" type="line"/>
		</contour>
		<contour>
			<point x="119" y="599" type="line"/>
			<point x="119" y="393" type="line"/>
			<point x="119" y="256"/>
			<point x="108" y="72"/>
			<point x="26" y="-64" type="curve"/>
			<point x="32" y="-67"/>
			<point x="41" y="-76"/>
			<point x="44" y="-82" type="curve"/>
			<point x="128" y="57"/>
			<point x="142" y="251"/>
			<point x="142" y="392" type="curve"/>
			<point x="142" y="599" type="line"/>
		</contour>
		<contour>
			<point x="128" y="599" type="line"/>
			<point x="128" y="569" type="line"/>
			<point x="630" y="569" type="line"/>
			<point x="630" y="416" type="line"/>
			<point x="128" y="416" type="line"/>
			<point x="128" y="386" type="line"/>
			<point x="653" y="386" type="line"/>
			<point x="653" y="599" type="line"/>
		</contour>
		<contour>
			<point x="254" y="350" type="line"/>
			<point x="254" y="7" type="line"/>
			<point x="254" y="-59"/>
			<point x="278" y="-71"/>
			<point x="356" y="-71" type="curve"/>
			<point x="374" y="-71"/>
			<point x="582" y="-71"/>
			<point x="600" y="-71" type="curve"/>
			<point x="672" y="-71"/>
			<point x="683" y="-40"/>
			<point x="689" y="83" type="curve"/>
			<point x="683" y="86"/>
			<point x="673" y="90"/>
			<point x="666" y="97" type="curve"/>
			<point x="662" y="-20"/>
			<point x="653" y="-41"/>
			<point x="602" y="-41" type="curve"/>
			<point x="560" y="-41"/>
			<point x="383" y="-41"/>
			<point x="352" y="-41" type="curve"/>
			<point x="289" y="-41"/>
			<point x="277" y="-30"/>
			<point x="277" y="7" type="curve"/>
			<point x="277" y="350" type="line"/>
		</contour>
		<contour>
			<point x="610" y="303" type="line"/>
			<point x="534" y="251"/>
			<point x="388" y="195"/>
			<point x="261" y="155" type="curve"/>
			<point x="264" y="148"/>
			<point x="268" y="138"/>
			<point x="270" y="131" type="curve"/>
			<point x="399" y="171"/>
			<point x="544" y="225"/>
			<point x="634" y="281" type="curve"/>
		</contour>
	</outline>
</glyph>
<glyph name="c18868" format="1">
	<advance width="750"/>
	<outline>
		<contour>
			<point x="295" y="145" type="line"/>
			<point x="295" y="115" type="line"/>
			<point x="721" y="115" type="line"/>
			<point x="721" y="145" type="line"/>
		</contour>
		<contour>
			<point x="317" y="333" type="line"/>
			<point x="317" y="303" type="line"/>
			<point x="705" y="303" type="line"/>
			<point x="705" y="333" type="line"/>
		</contour>
		<contour>
			<point x="331" y="806" type="line"/>
			<point x="331" y="776" type="line"/>
			<point x="462" y="776" type="line"/>
			<point x="462" y="660" type="line"/>
			<point x="331" y="660" type="line"/>
			<point x="331" y="630" type="line"/>
			<point x="485" y="630" type="line"/>
			<point x="485" y="806" type="line"/>
		</contour>
		<contour>
			<point x="414" y="447" type="line"/>
			<point x="414" y="127" type="line"/>
			<point x="437" y="127" type="line"/>
			<point x="437" y="447" type="line"/>
		</contour>
		<contour>
			<point x="581" y="447" type="line"/>
			<point x="581" y="127" type="line"/>
			<point x="604" y="127" type="line"/>
			<point x="604" y="447" type="line"/>
		</contour>
		<contour>
			<point x="319" y="806" type="line"/>
			<point x="319" y="532" type="line"/>
			<point x="319" y="488"/>
			<point x="329" y="480"/>
			<point x="368" y="480" type="curve"/>
			<point x="376" y="480"/>
			<point x="449" y="480"/>
			<point x="457" y="480" type="curve"/>
			<point x="488" y="480"/>
			<point x="495" y="498"/>
			<point x="497" y="572" type="curve"/>
			<point x="491" y="574"/>
			<point x="482" y="578"/>
			<point x="476" y="584" type="curve"/>
			<point x="475" y="517"/>
			<point x="471" y="508"/>
			<point x="454" y="508" type="curve"/>
			<point x="439" y="508"/>
			<point x="379" y="508"/>
			<point x="368" y="508" type="curve"/>
			<point x="345" y="508"/>
			<point x="341" y="512"/>
			<point x="341" y="531" type="curve"/>
			<point x="341" y="806" type="line"/>
		</contour>
		<contour>
			<point x="544" y="806" type="line"/>
			<point x="544" y="776" type="line"/>
			<point x="675" y="776" type="line"/>
			<point x="675" y="660" type="line"/>
			<point x="544" y="660" type="line"/>
			<point x="544" y="630" type="line"/>
			<point x="698" y="630" type="line"/>
			<point x="698" y="806" type="line"/>
		</contour>
		<contour>
			<point x="532" y="806" type="line"/>
			<point x="532" y="532" type="line"/>
			<point x="532" y="488"/>
			<point x="543" y="480"/>
			<point x="583" y="480" type="curve"/>
			<point x="591" y="480"/>
			<point x="668" y="480"/>
			<point x="677" y="480" type="curve"/>
			<point x="709" y="480"/>
			<point x="716" y="498"/>
			<point x="719" y="572" type="curve"/>
			<point x="712" y="574"/>
			<point x="704" y="578"/>
			<point x="698" y="584" type="curve"/>
			<point x="696" y="517"/>
			<point x="692" y="508"/>
			<point x="674" y="508" type="curve"/>
			<point x="659" y="508"/>
			<point x="594" y="508"/>
			<point x="583" y="508" type="curve"/>
			<point x="558" y="508"/>
			<point x="554" y="512"/>
			<point x="554" y="532" type="curve"/>
			<point x="554" y="806" type="line"/>
		</contour>
		<contour>
			<point x="556" y="69" type="line"/>
			<point x="611" y="25"/>
			<point x="677" y="-39"/>
			<point x="711" y="-80" type="curve"/>
			<point x="729" y="-60" type="line"/>
			<point x="694" y="-19"/>
			<point x="627" y="43"/>
			<point x="573" y="86" type="curve"/>
		</contour>
		<contour>
			<point x="443" y="87" type="line"/>
			<point x="410" y="37"/>
			<point x="341" y="-21"/>
			<point x="281" y="-57" type="curve"/>
			<point x="287" y="-63"/>
			<point x="293" y="-75"/>
			<point x="297" y="-82" type="curve"/>
			<point x="356" y="-45"/>
			<point x="425" y="14"/>
			<point x="468" y="71" type="curve"/>
		</contour>
		<contour>
			<point x="26" y="-9" type="curve"/>
			<point x="33" y="-40" type="line"/>
			<point x="104" y="-19"/>
			<point x="203" y="10"/>
			<point x="297" y="38" type="curve"/>
			<point x="295" y="67" type="line"/>
			<point x="194" y="38"/>
			<point x="92" y="9"/>
		</contour>
		<contour>
			<point x="73" y="588" type="line"/>
			<point x="73" y="558" type="line"/>
			<point x="269" y="558" type="line"/>
			<point x="269" y="588" type="line"/>
		</contour>
		<contour>
			<point x="33" y="416" type="line"/>
			<point x="33" y="386" type="line"/>
			<point x="284" y="386" type="line"/>
			<point x="284" y="416" type="line"/>
		</contour>
		<contour>
			<point x="57" y="310" type="line"/>
			<point x="74" y="243"/>
			<point x="85" y="157"/>
			<point x="86" y="100" type="curve"/>
			<point x="109" y="106" type="line"/>
			<point x="107" y="162"/>
			<point x="95" y="249"/>
			<point x="78" y="315" type="curve"/>
		</contour>
		<contour>
			<point x="253" y="328" type="line"/>
			<point x="246" y="270"/>
			<point x="230" y="180"/>
			<point x="218" y="126" type="curve"/>
			<point x="239" y="116" type="line"/>
			<point x="252" y="170"/>
			<point x="266" y="252"/>
			<point x="277" y="318" type="curve"/>
		</contour>
		<contour>
			<point x="158" y="572" type="line"/>
			<point x="158" y="14" type="line"/>
			<point x="180" y="17" type="line"/>
			<point x="180" y="572" type="line"/>
		</contour>
		<contour>
			<point x="158" y="839" type="line"/>
			<point x="131" y="755"/>
			<point x="81" y="644"/>
			<point x="11" y="561" type="curve"/>
			<point x="17" y="557"/>
			<point x="24" y="550"/>
			<point x="29" y="544" type="curve"/>
			<point x="101" y="631"/>
			<point x="149" y="742"/>
			<point x="177" y="820" type="curve"/>
			<point x="177" y="829" type="line"/>
			<point x="170" y="829" type="line"/>
			<point x="170" y="839" type="line"/>
		</contour>
		<contour>
			<point x="164" y="839" type="line"/>
			<point x="164" y="817" type="line"/>
			<point x="170" y="817" type="line"/>
			<point x="210" y="763"/>
			<point x="255" y="682"/>
			<point x="278" y="633" type="curve"/>
			<point x="297" y="654" type="line"/>
			<point x="275" y="703"/>
			<point x="227" y="783"/>
			<point x="185" y="839" type="curve"/>
		</contour>
	</outline>
</glyph>
<glyph name="c19753" format="1">
	<advance width="750"/>
	<outline>
		<contour>
			<point x="40" y="765" type="line"/>
			<point x="40" y="735" type="line"/>
			<point x="712" y="735" type="line"/>
			<point x="712" y="765" type="line"/>
		</contour>
		<contour>
			<point x="233" y="840" type="line"/>
			<point x="233" y="682" type="line"/>
			<point x="255" y="682" type="line"/>
			<point x="255" y="840" type="line"/>
		</contour>
		<contour>
			<point x="491" y="840" type="line"/>
			<point x="491" y="682" type="line"/>
			<point x="514" y="682" type="line"/>
			<point x="514" y="840" type="line"/>
		</contour>
		<contour>
			<point x="101" y="662" type="line"/>
			<point x="101" y="632" type="line"/>
			<point x="651" y="632" type="line"/>
			<point x="651" y="662" type="line"/>
		</contour>
		<contour>
			<point x="142" y="496" type="line"/>
			<point x="142" y="466" type="line"/>
			<point x="305" y="466" type="line"/>
			<point x="305" y="496" type="line"/>
		</contour>
		<contour>
			<point x="134" y="415" type="line"/>
			<point x="134" y="385" type="line"/>
			<point x="303" y="385" type="line"/>
			<point x="303" y="415" type="line"/>
		</contour>
		<contour>
			<point x="443" y="415" type="line"/>
			<point x="443" y="385" type="line"/>
			<point x="615" y="385" type="line"/>
			<point x="615" y="415" type="line"/>
		</contour>
		<contour>
			<point x="411" y="-24" type="line"/>
			<point x="411" y="-54" type="line"/>
			<point x="638" y="-54" type="line"/>
			<point x="638" y="-24" type="line"/>
		</contour>
		<contour>
			<point x="200" y="115" type="line"/>
			<point x="200" y="85" type="line"/>
			<point x="322" y="85" type="line"/>
			<point x="322" y="115" type="line"/>
		</contour>
		<contour>
			<point x="443" y="496" type="line"/>
			<point x="443" y="466" type="line"/>
			<point x="608" y="466" type="line"/>
			<point x="608" y="496" type="line"/>
		</contour>
		<contour>
			<point x="362" y="652" type="line"/>
			<point x="362" y="359" type="line"/>
			<point x="384" y="359" type="line"/>
			<point x="384" y="652" type="line"/>
		</contour>
		<contour>
			<point x="58" y="576" type="line"/>
			<point x="58" y="429" type="line"/>
			<point x="80" y="429" type="line"/>
			<point x="80" y="546" type="line"/>
			<point x="668" y="546" type="line"/>
			<point x="668" y="429" type="line"/>
			<point x="690" y="429" type="line"/>
			<point x="690" y="576" type="line"/>
		</contour>
		<contour>
			<point x="112" y="302" type="line"/>
			<point x="295" y="302" type="line"/>
			<point x="295" y="217" type="line"/>
			<point x="112" y="217" type="line"/>
		</contour>
		<contour>
			<point x="89" y="332" type="line"/>
			<point x="89" y="187" type="line"/>
			<point x="317" y="187" type="line"/>
			<point x="317" y="332" type="line"/>
		</contour>
		<contour>
			<point x="402" y="109" type="line"/>
			<point x="402" y="-80" type="line"/>
			<point x="425" y="-80" type="line"/>
			<point x="425" y="79" type="line"/>
			<point x="626" y="79" type="line"/>
			<point x="626" y="-78" type="line"/>
			<point x="649" y="-78" type="line"/>
			<point x="649" y="109" type="line"/>
		</contour>
		<contour>
			<point x="438" y="284" type="curve"/>
			<point x="419" y="272" type="line"/>
			<point x="476" y="188"/>
			<point x="596" y="123"/>
			<point x="707" y="96" type="curve"/>
			<point x="710" y="104"/>
			<point x="716" y="116"/>
			<point x="722" y="122" type="curve"/>
			<point x="611" y="145"/>
			<point x="493" y="206"/>
		</contour>
		<contour>
			<point x="471" y="371" type="line"/>
			<point x="446" y="316"/>
			<point x="398" y="254"/>
			<point x="332" y="208" type="curve"/>
			<point x="338" y="204"/>
			<point x="344" y="196"/>
			<point x="349" y="190" type="curve"/>
			<point x="417" y="241"/>
			<point x="465" y="304"/>
			<point x="495" y="366" type="curve"/>
		</contour>
		<contour>
			<point x="623" y="322" type="line"/>
			<point x="623" y="315" type="line"/>
			<point x="573" y="212"/>
			<point x="446" y="141"/>
			<point x="338" y="114" type="curve"/>
			<point x="343" y="107"/>
			<point x="349" y="97"/>
			<point x="352" y="89" type="curve"/>
			<point x="461" y="122"/>
			<point x="591" y="195"/>
			<point x="647" y="312" type="curve"/>
			<point x="633" y="324" type="line"/>
			<point x="629" y="322" type="line"/>
		</contour>
		<contour>
			<point x="46" y="-30" type="curve"/>
			<point x="50" y="-61" type="line"/>
			<point x="128" y="-48"/>
			<point x="239" y="-29"/>
			<point x="348" y="-10" type="curve"/>
			<point x="348" y="19" type="line"/>
			<point x="234" y="0"/>
			<point x="120" y="-19"/>
		</contour>
		<contour>
			<point x="452" y="322" type="line"/>
			<point x="437" y="292" type="line"/>
			<point x="629" y="292" type="line"/>
			<point x="629" y="322" type="line"/>
		</contour>
		<contour>
			<point x="193" y="208" type="line"/>
			<point x="193" y="-20" type="line"/>
			<point x="215" y="-16" type="line"/>
			<point x="215" y="208" type="line"/>
		</contour>
		<contour>
			<point x="92" y="146" type="line"/>
			<point x="92" y="-33" type="line"/>
			<point x="114" y="-29" type="line"/>
			<point x="114" y="146" type="line"/>
		</contour>
	</outline>
</glyph>
<glyph name="c1984" format="1">
	<advance width="750"/>
	<outline>
		<contour>
			<point x="137" y="423" type="line"/>
			<point x="137" y="393" type="line"/>
			<point x="722" y="393" type="line"/>
			<point x="722" y="423" type="line"/>
		</contour>
		<contour>
			<point x="189" y="580" type="line"/>
			<point x="189" y="550" type="line"/>
			<point x="624" y="550" type="line"/>
			<point x="624" y="254" type="line"/>
			<point x="185" y="254" type="line"/>
			<point x="185" y="224" type="line"/>
			<point x="647" y="224" type="line"/>
			<point x="647" y="580" type="line"/>
		</contour>
		<contour>
			<point x="401" y="670" type="line"/>
			<point x="401" y="352" type="line"/>
			<point x="401" y="204"/>
			<point x="388" y="37"/>
			<point x="140" y="-55" type="curve"/>
			<point x="143" y="-62"/>
			<point x="149" y="-74"/>
			<point x="152" y="-81" type="curve"/>
			<point x="407" y="18"/>
			<point x="423" y="193"/>
			<point x="423" y="352" type="curve"/>
			<point x="423" y="670" type="line"/>
		</contour>
		<contour>
			<point x="434" y="244" type="curve"/>
			<point x="412" y="237" type="line"/>
			<point x="450" y="58"/>
			<point x="546" y="-41"/>
			<point x="698" y="-83" type="curve"/>
			<point x="701" y="-73"/>
			<point x="707" y="-62"/>
			<point x="713" y="-55" type="curve"/>
			<point x="563" y="-20"/>
			<point x="470" y="75"/>
		</contour>
		<contour>
			<point x="384" y="839" type="line"/>
			<point x="384" y="713" type="line"/>
			<point x="407" y="713" type="line"/>
			<point x="407" y="839" type="line"/>
		</contour>
		<contour>
			<point x="104" y="731" type="line"/>
			<point x="104" y="701" type="line"/>
			<point x="716" y="701" type="line"/>
			<point x="716" y="731" type="line"/>
		</contour>
		<contour>
			<point x="92" y="731" type="line"/>
			<point x="92" y="409" type="line"/>
			<point x="92" y="269"/>
			<point x="86" y="82"/>
			<point x="22" y="-54" type="curve"/>
			<point x="27" y="-57"/>
			<point x="37" y="-66"/>
			<point x="41" y="-72" type="curve"/>
			<point x="106" y="67"/>
			<point x="115" y="265"/>
			<point x="115" y="409" type="curve"/>
			<point x="115" y="731" type="line"/>
		</contour>
	</outline>
</glyph>
<glyph name="c2057" format="1">
	<advance width="750"/>
	<outline>
		<contour>
			<point x="250" y="729" type="line"/>
			<point x="250" y="699" type="line"/>
			<point x="710" y="699" type="line"/>
			<point x="710" y="729" type="line"/>
		</contour>
		<contour>
			<point x="325" y="213" type="line"/>
			<point x="325" y="183" type="line"/>
			<point x="470" y="183" type="line"/>
			<point x="470" y="213" type="line"/>
		</contour>
		<contour>
			<point x="311" y="321" type="line"/>
			<point x="311" y="-35" type="line"/>
			<point x="334" y="-35" type="line"/>
			<point x="334" y="321" type="line"/>
		</contour>
		<contour>
			<point x="449" y="839" type="line"/>
			<point x="449" y="717" type="line"/>
			<point x="471" y="717" type="line"/>
			<point x="471" y="839" type="line"/>
		</contour>
		<contour>
			<point x="382" y="666" type="line"/>
			<point x="382" y="382" type="line"/>
			<point x="404" y="382" type="line"/>
			<point x="404" y="666" type="line"/>
		</contour>
		<contour>
			<point x="530" y="666" type="line"/>
			<point x="530" y="382" type="line"/>
			<point x="552" y="382" type="line"/>
			<point x="552" y="666" type="line"/>
		</contour>
		<contour>
			<point x="677" y="270" type="line"/>
			<point x="635" y="234"/>
			<point x="562" y="185"/>
			<point x="511" y="157" type="curve"/>
			<point x="525" y="135" type="line"/>
			<point x="576" y="163"/>
			<point x="646" y="205"/>
			<point x="693" y="248" type="curve"/>
		</contour>
		<contour>
			<point x="248" y="567" type="line"/>
			<point x="248" y="537" type="line"/>
			<point x="674" y="537" type="line"/>
			<point x="674" y="387" type="line"/>
			<point x="248" y="387" type="line"/>
			<point x="248" y="357" type="line"/>
			<point x="697" y="357" type="line"/>
			<point x="697" y="567" type="line"/>
		</contour>
		<contour>
			<point x="505" y="323" type="line"/>
			<point x="505" y="-14" type="line"/>
			<point x="505" y="-63"/>
			<point x="517" y="-73"/>
			<point x="562" y="-73" type="curve"/>
			<point x="572" y="-73"/>
			<point x="660" y="-73"/>
			<point x="671" y="-73" type="curve"/>
			<point x="711" y="-73"/>
			<point x="719" y="-45"/>
			<point x="722" y="68" type="curve"/>
			<point x="715" y="70"/>
			<point x="706" y="75"/>
			<point x="700" y="81" type="curve"/>
			<point x="698" y="-28"/>
			<point x="694" y="-44"/>
			<point x="668" y="-44" type="curve"/>
			<point x="650" y="-44"/>
			<point x="575" y="-44"/>
			<point x="562" y="-44" type="curve"/>
			<point x="533" y="-44"/>
			<point x="527" y="-39"/>
			<point x="527" y="-15" type="curve"/>
			<point x="527" y="323" type="line"/>
		</contour>
		<contour>
			<point x="251" y="-40" type="curve"/>
			<point x="257" y="-71" type="line"/>
			<point x="317" y="-55"/>
			<point x="398" y="-32"/>
			<point x="477" y="-11" type="curve"/>
			<point x="476" y="20" type="line"/>
			<point x="390" y="-3"/>
			<point x="308" y="-26"/>
		</contour>
		<contour>
			<point x="234" y="729" type="line"/>
			<point x="234" y="415" type="line"/>
			<point x="234" y="270"/>
			<point x="226" y="78"/>
			<point x="146" y="-60" type="curve"/>
			<point x="152" y="-63"/>
			<point x="161" y="-71"/>
			<point x="165" y="-77" type="curve"/>
			<point x="245" y="64"/>
			<point x="257" y="266"/>
			<point x="257" y="415" type="curve"/>
			<point x="257" y="729" type="line"/>
		</contour>
		<contour>
			<point x="66" y="806" type="line"/>
			<point x="110" y="775"/>
			<point x="162" y="726"/>
			<point x="188" y="690" type="curve"/>
			<point x="202" y="715" type="line"/>
			<point x="176" y="750"/>
			<point x="125" y="797"/>
			<point x="80" y="827" type="curve"/>
		</contour>
		<contour>
			<point x="29" y="529" type="line"/>
			<point x="77" y="502"/>
			<point x="132" y="458"/>
			<point x="161" y="425" type="curve"/>
			<point x="173" y="451" type="line"/>
			<point x="146" y="484"/>
			<point x="90" y="526"/>
			<point x="42" y="551" type="curve"/>
		</contour>
		<contour>
			<point x="43" y="-46" type="curve"/>
			<point x="63" y="-65" type="line"/>
			<point x="98" y="23"/>
			<point x="143" y="156"/>
			<point x="173" y="260" type="curve"/>
			<point x="155" y="278" type="line"/>
			<point x="123" y="168"/>
			<point x="76" y="32"/>
		</contour>
	</outline>
</glyph>
<glyph name="c21305" format="1">
	<advance width="750"/>
	<outline>
		<contour>
			<point x="137" y="-11" type="line"/>
			<point x="137" y="-41" type="line"/>
			<point x="617" y="-41" type="line"/>
			<point x="617" y="-11" type="line"/>
		</contour>
		<contour>
			<point x="126" y="181" type="line"/>
			<point x="126" y="-80" type="line"/>
			<point x="149" y="-80" type="line"/>
			<point x="149" y="151" type="line"/>
			<point x="609" y="151" type="line"/>
			<point x="609" y="-78" type="line"/>
			<point x="632" y="-78" type="line"/>
			<point x="632" y="181" type="line"/>
		</contour>
		<contour>
			<point x="226" y="737" type="line"/>
			<point x="226" y="707" type="line"/>
			<point x="713" y="707" type="line"/>
			<point x="713" y="737" type="line"/>
		</contour>
		<contour>
			<point x="41" y="673" type="line"/>
			<point x="86" y="652"/>
			<point x="137" y="616"/>
			<point x="164" y="586" type="curve"/>
			<point x="176" y="611" type="line"/>
			<point x="150" y="641"/>
			<point x="98" y="675"/>
			<point x="54" y="695" type="curve"/>
		</contour>
		<contour>
			<point x="83" y="808" type="line"/>
			<point x="124" y="780"/>
			<point x="172" y="736"/>
			<point x="196" y="705" type="curve"/>
			<point x="211" y="728" type="line"/>
			<point x="187" y="759"/>
			<point x="138" y="801"/>
			<point x="98" y="828" type="curve"/>
		</contour>
		<contour>
			<point x="316" y="825" type="line"/>
			<point x="337" y="799"/>
			<point x="359" y="762"/>
			<point x="369" y="736" type="curve"/>
			<point x="389" y="752" type="line"/>
			<point x="379" y="778"/>
			<point x="356" y="814"/>
			<point x="335" y="839" type="curve"/>
		</contour>
		<contour>
			<point x="299" y="526" type="line"/>
			<point x="631" y="526" type="line"/>
			<point x="631" y="466" type="line"/>
			<point x="299" y="466" type="line"/>
		</contour>
		<contour>
			<point x="299" y="436" type="line"/>
			<point x="631" y="436" type="line"/>
			<point x="631" y="374" type="line"/>
			<point x="299" y="374" type="line"/>
		</contour>
		<contour>
			<point x="299" y="615" type="line"/>
			<point x="631" y="615" type="line"/>
			<point x="631" y="556" type="line"/>
			<point x="299" y="556" type="line"/>
		</contour>
		<contour>
			<point x="276" y="645" type="line"/>
			<point x="276" y="344" type="line"/>
			<point x="653" y="344" type="line"/>
			<point x="653" y="645" type="line"/>
		</contour>
		<contour>
			<point x="171" y="530" type="line"/>
			<point x="35" y="530" type="line"/>
			<point x="35" y="500" type="line"/>
			<point x="149" y="500" type="line"/>
			<point x="149" y="355" type="line"/>
			<point x="171" y="355" type="line"/>
		</contour>
		<contour>
			<point x="445" y="731" type="line"/>
			<point x="439" y="702"/>
			<point x="426" y="656"/>
			<point x="416" y="627" type="curve"/>
			<point x="435" y="620" type="line"/>
			<point x="446" y="647"/>
			<point x="457" y="686"/>
			<point x="467" y="723" type="curve"/>
		</contour>
		<contour>
			<point x="578" y="840" type="line"/>
			<point x="566" y="814"/>
			<point x="543" y="774"/>
			<point x="526" y="749" type="curve"/>
			<point x="545" y="738" type="line"/>
			<point x="563" y="763"/>
			<point x="583" y="795"/>
			<point x="600" y="829" type="curve"/>
		</contour>
		<contour>
			<point x="171" y="371" type="curve"/>
			<point x="153" y="371" type="line"/>
			<point x="113" y="333"/>
			<point x="68" y="295"/>
			<point x="32" y="268" type="curve"/>
			<point x="45" y="237" type="line"/>
			<point x="84" y="271"/>
			<point x="123" y="307"/>
			<point x="161" y="343" type="curve"/>
			<point x="203" y="282"/>
			<point x="267" y="252"/>
			<point x="350" y="249" type="curve"/>
			<point x="436" y="246"/>
			<point x="625" y="247"/>
			<point x="712" y="251" type="curve"/>
			<point x="713" y="261"/>
			<point x="717" y="274"/>
			<point x="720" y="282" type="curve"/>
			<point x="631" y="277"/>
			<point x="433" y="274"/>
			<point x="349" y="277" type="curve"/>
			<point x="273" y="280"/>
			<point x="206" y="310"/>
		</contour>
	</outline>
</glyph>
<glyph name="c21932" format="1">
	<advance width="750"/>
	<outline>
		<contour>
			<point x="248" y="-21" type="line"/>
			<point x="248" y="-51" type="line"/>
			<point x="721" y="-51" type="line"/>
			<point x="721" y="-21" type="line"/>
		</contour>
		<contour>
			<point x="313" y="163" type="line"/>
			<point x="313" y="132" type="line"/>
			<point x="671" y="132" type="line"/>
			<point x="671" y="163" type="line"/>
		</contour>
		<contour>
			<point x="338" y="617" type="line"/>
			<point x="644" y="617" type="line"/>
			<point x="644" y="494" type="line"/>
			<point x="338" y="494" type="line"/>
		</contour>
		<contour>
			<point x="338" y="768" type="line"/>
			<point x="644" y="768" type="line"/>
			<point x="644" y="647" type="line"/>
			<point x="338" y="647" type="line"/>
		</contour>
		<contour>
			<point x="315" y="798" type="line"/>
			<point x="315" y="464" type="line"/>
			<point x="667" y="464" type="line"/>
			<point x="667" y="798" type="line"/>
		</contour>
		<contour>
			<point x="474" y="436" type="line"/>
			<point x="474" y="-37" type="line"/>
			<point x="497" y="-37" type="line"/>
			<point x="497" y="436" type="line"/>
		</contour>
		<contour>
			<point x="355" y="437" type="line"/>
			<point x="333" y="347"/>
			<point x="296" y="263"/>
			<point x="251" y="206" type="curve"/>
			<point x="257" y="201"/>
			<point x="267" y="192"/>
			<point x="271" y="187" type="curve"/>
			<point x="314" y="247"/>
			<point x="353" y="336"/>
			<point x="377" y="431" type="curve"/>
		</contour>
		<contour>
			<point x="335" y="329" type="line"/>
			<point x="324" y="299" type="line"/>
			<point x="687" y="299" type="line"/>
			<point x="687" y="329" type="line"/>
		</contour>
		<contour>
			<point x="151" y="829" type="line"/>
			<point x="151" y="488" type="line"/>
			<point x="151" y="292"/>
			<point x="139" y="97"/>
			<point x="23" y="-58" type="curve"/>
			<point x="29" y="-63"/>
			<point x="37" y="-72"/>
			<point x="41" y="-78" type="curve"/>
			<point x="160" y="83"/>
			<point x="173" y="283"/>
			<point x="173" y="488" type="curve"/>
			<point x="173" y="829" type="line"/>
		</contour>
		<contour>
			<point x="82" y="635" type="line"/>
			<point x="77" y="542"/>
			<point x="62" y="446"/>
			<point x="29" y="394" type="curve"/>
			<point x="46" y="377" type="line"/>
			<point x="83" y="434"/>
			<point x="98" y="536"/>
			<point x="102" y="630" type="curve"/>
		</contour>
		<contour>
			<point x="254" y="668" type="line"/>
			<point x="239" y="605"/>
			<point x="209" y="509"/>
			<point x="188" y="453" type="curve"/>
			<point x="205" y="441" type="line"/>
			<point x="227" y="497"/>
			<point x="255" y="585"/>
			<point x="275" y="654" type="curve"/>
		</contour>
		<contour>
			<point x="161" y="268" type="curve"/>
			<point x="144" y="251" type="line"/>
			<point x="166" y="214"/>
			<point x="233" y="81"/>
			<point x="254" y="35" type="curve"/>
			<point x="271" y="60" type="line"/>
			<point x="254" y="94"/>
			<point x="180" y="236"/>
		</contour>
	</outline>
</glyph>
<glyph name="c22029" format="1">
	<advance width="750"/>
	<outline>
		<contour>
			<point x="156" y="735" type="line"/>
			<point x="156" y="705" type="line"/>
			<point x="720" y="705" type="line"/>
			<point x="720" y="735" type="line"/>
		</contour>
		<contour>
			<point x="404" y="839" type="line"/>
			<point x="404" y="717" type="line"/>
			<point x="426" y="717" type="line"/>
			<point x="426" y="839" type="line"/>
		</contour>
		<contour>
			<point x="143" y="735" type="line"/>
			<point x="143" y="409" type="line"/>
			<point x="143" y="264"/>
			<point x="133" y="79"/>
			<point x="44" y="-54" type="curve"/>
			<point x="49" y="-58"/>
			<point x="57" y="-68"/>
			<point x="61" y="-74" type="curve"/>
			<point x="152" y="63"/>
			<point x="165" y="259"/>
			<point x="165" y="409" type="curve"/>
			<point x="165" y="735" type="line"/>
		</contour>
		<contour>
			<point x="39" y="645" type="line"/>
			<point x="65" y="583"/>
			<point x="87" y="501"/>
			<point x="94" y="449" type="curve"/>
			<point x="116" y="461" type="line"/>
			<point x="110" y="511"/>
			<point x="86" y="592"/>
			<point x="60" y="654" type="curve"/>
		</contour>
		<contour>
			<point x="24" y="243" type="curve"/>
			<point x="37" y="218" type="line"/>
			<point x="74" y="246"/>
			<point x="116" y="279"/>
			<point x="157" y="312" type="curve"/>
			<point x="152" y="337" type="line"/>
			<point x="103" y="300"/>
			<point x="57" y="265"/>
		</contour>
		<contour>
			<point x="186" y="76" type="line"/>
			<point x="186" y="46" type="line"/>
			<point x="710" y="46" type="line"/>
			<point x="710" y="76" type="line"/>
		</contour>
		<contour>
			<point x="263" y="511" type="line"/>
			<point x="263" y="481" type="line"/>
			<point x="642" y="481" type="line"/>
			<point x="642" y="511" type="line"/>
		</contour>
		<contour>
			<point x="274" y="267" type="line"/>
			<point x="624" y="267" type="line"/>
			<point x="624" y="183" type="line"/>
			<point x="274" y="183" type="line"/>
		</contour>
		<contour>
			<point x="274" y="379" type="line"/>
			<point x="624" y="379" type="line"/>
			<point x="624" y="297" type="line"/>
			<point x="274" y="297" type="line"/>
		</contour>
		<contour>
			<point x="251" y="409" type="line"/>
			<point x="251" y="153" type="line"/>
			<point x="647" y="153" type="line"/>
			<point x="647" y="409" type="line"/>
		</contour>
		<contour>
			<point x="434" y="570" type="line"/>
			<point x="434" y="-83" type="line"/>
			<point x="457" y="-83" type="line"/>
			<point x="457" y="570" type="line"/>
		</contour>
		<contour>
			<point x="218" y="626" type="line"/>
			<point x="218" y="484" type="line"/>
			<point x="241" y="484" type="line"/>
			<point x="241" y="596" type="line"/>
			<point x="668" y="596" type="line"/>
			<point x="668" y="484" type="line"/>
			<point x="690" y="484" type="line"/>
			<point x="690" y="626" type="line"/>
		</contour>
	</outline>
</glyph>
<glyph name="c22379" format="1">
	<advance width="750"/>
	<outline>
		<contour>
			<point x="475" y="627" type="line"/>
			<point x="631" y="627" type="line"/>
			<point x="631" y="521" type="line"/>
			<point x="475" y="521" type="line"/>
		</contour>
		<contour>
			<point x="299" y="627" type="line"/>
			<point x="452" y="627" type="line"/>
			<point x="452" y="521" type="line"/>
			<point x="299" y="521" type="line"/>
		</contour>
		<contour>
			<point x="130" y="627" type="line"/>
			<point x="277" y="627" type="line"/>
			<point x="277" y="521" type="line"/>
			<point x="130" y="521" type="line"/>
		</contour>
		<contour>
			<point x="107" y="657" type="line"/>
			<point x="107" y="491" type="line"/>
			<point x="653" y="491" type="line"/>
			<point x="653" y="657" type="line"/>
		</contour>
		<contour>
			<point x="41" y="761" type="line"/>
			<point x="41" y="731" type="line"/>
			<point x="710" y="731" type="line"/>
			<point x="710" y="761" type="line"/>
		</contour>
		<contour>
			<point x="233" y="839" type="line"/>
			<point x="233" y="681" type="line"/>
			<point x="255" y="681" type="line"/>
			<point x="255" y="839" type="line"/>
		</contour>
		<contour>
			<point x="491" y="839" type="line"/>
			<point x="491" y="681" type="line"/>
			<point x="514" y="681" type="line"/>
			<point x="514" y="839" type="line"/>
		</contour>
		<contour>
			<point x="187" y="432" type="line"/>
			<point x="187" y="402" type="line"/>
			<point x="650" y="402" type="line"/>
			<point x="650" y="432" type="line"/>
		</contour>
		<contour>
			<point x="133" y="315" type="line"/>
			<point x="133" y="117" type="line"/>
			<point x="155" y="117" type="line"/>
			<point x="155" y="315" type="line"/>
		</contour>
		<contour>
			<point x="144" y="315" type="line"/>
			<point x="144" y="285" type="line"/>
			<point x="489" y="285" type="line"/>
			<point x="489" y="188" type="line"/>
			<point x="144" y="188" type="line"/>
			<point x="144" y="158" type="line"/>
			<point x="512" y="158" type="line"/>
			<point x="512" y="315" type="line"/>
		</contour>
		<contour>
			<point x="307" y="408" type="line"/>
			<point x="307" y="34" type="line"/>
			<point x="329" y="34" type="line"/>
			<point x="329" y="408" type="line"/>
		</contour>
		<contour>
			<point x="90" y="27" type="curve"/>
			<point x="93" y="-4" type="line"/>
			<point x="197" y="5"/>
			<point x="352" y="19"/>
			<point x="502" y="33" type="curve"/>
			<point x="503" y="60" type="line"/>
			<point x="348" y="47"/>
			<point x="190" y="34"/>
		</contour>
		<contour>
			<point x="640" y="432" type="line"/>
			<point x="640" y="424" type="line"/>
			<point x="631" y="100"/>
			<point x="620" y="-15"/>
			<point x="603" y="-42" type="curve"/>
			<point x="597" y="-52"/>
			<point x="590" y="-53"/>
			<point x="577" y="-53" type="curve"/>
			<point x="564" y="-53"/>
			<point x="527" y="-53"/>
			<point x="488" y="-48" type="curve"/>
			<point x="492" y="-56"/>
			<point x="494" y="-69"/>
			<point x="494" y="-78" type="curve"/>
			<point x="528" y="-81"/>
			<point x="563" y="-82"/>
			<point x="581" y="-82" type="curve"/>
			<point x="601" y="-81"/>
			<point x="612" y="-76"/>
			<point x="622" y="-60" type="curve"/>
			<point x="644" y="-26"/>
			<point x="653" y="80"/>
			<point x="662" y="411" type="curve"/>
			<point x="662" y="417"/>
			<point x="662" y="432"/>
			<point x="662" y="432" type="curve"/>
		</contour>
		<contour>
			<point x="225" y="509" type="line"/>
			<point x="181" y="413"/>
			<point x="107" y="324"/>
			<point x="35" y="266" type="curve"/>
			<point x="41" y="261"/>
			<point x="50" y="250"/>
			<point x="54" y="245" type="curve"/>
			<point x="125" y="306"/>
			<point x="200" y="399"/>
			<point x="247" y="500" type="curve"/>
		</contour>
		<contour>
			<point x="401" y="120" type="line"/>
			<point x="452" y="83"/>
			<point x="509" y="25"/>
			<point x="535" y="-20" type="curve"/>
			<point x="551" y="1" type="line"/>
			<point x="524" y="46"/>
			<point x="468" y="103"/>
			<point x="417" y="139" type="curve"/>
		</contour>
	</outline>
</glyph>
<glyph name="c22395" format="1">
	<advance width="750"/>
	<outline>
		<contour>
			<point x="41" y="769" type="line"/>
			<point x="41" y="739" type="line"/>
			<point x="710" y="739" type="line"/>
			<point x="710" y="769" type="line"/>
		</contour>
		<contour>
			<point x="239" y="839" type="line"/>
			<point x="239" y="672" type="line"/>
			<point x="261" y="672" type="line"/>
			<point x="261" y="839" type="line"/>
		</contour>
		<contour>
			<point x="485" y="839" type="line"/>
			<point x="485" y="677" type="line"/>
			<point x="507" y="677" type="line"/>
			<point x="507" y="839" type="line"/>
		</contour>
		<contour>
			<point x="183" y="633" type="line"/>
			<point x="173" y="593"/>
			<point x="156" y="554"/>
			<point x="134" y="522" type="curve"/>
			<point x="140" y="518"/>
			<point x="150" y="511"/>
			<point x="154" y="507" type="curve"/>
			<point x="174" y="538"/>
			<point x="193" y="584"/>
			<point x="205" y="627" type="curve"/>
		</contour>
		<contour>
			<point x="405" y="492" type="line"/>
			<point x="405" y="462" type="line"/>
			<point x="635" y="462" type="line"/>
			<point x="635" y="492" type="line"/>
		</contour>
		<contour>
			<point x="173" y="583" type="line"/>
			<point x="173" y="553" type="line"/>
			<point x="352" y="553" type="line"/>
			<point x="352" y="583" type="line"/>
		</contour>
		<contour>
			<point x="122" y="499" type="line"/>
			<point x="122" y="469" type="line"/>
			<point x="369" y="469" type="line"/>
			<point x="369" y="499" type="line"/>
		</contour>
		<contour>
			<point x="457" y="654" type="line"/>
			<point x="457" y="624" type="line"/>
			<point x="599" y="624" type="line"/>
			<point x="599" y="654" type="line"/>
		</contour>
		<contour>
			<point x="629" y="492" type="line"/>
			<point x="629" y="486" type="line"/>
			<point x="593" y="395"/>
			<point x="484" y="348"/>
			<point x="387" y="330" type="curve"/>
			<point x="392" y="323"/>
			<point x="398" y="311"/>
			<point x="400" y="303" type="curve"/>
			<point x="503" y="326"/>
			<point x="612" y="378"/>
			<point x="653" y="484" type="curve"/>
			<point x="640" y="493" type="line"/>
			<point x="635" y="492" type="line"/>
		</contour>
		<contour>
			<point x="449" y="480" type="curve"/>
			<point x="429" y="470" type="line"/>
			<point x="476" y="383"/>
			<point x="585" y="326"/>
			<point x="703" y="304" type="curve"/>
			<point x="706" y="313"/>
			<point x="712" y="324"/>
			<point x="717" y="331" type="curve"/>
			<point x="600" y="347"/>
			<point x="493" y="399"/>
		</contour>
		<contour>
			<point x="447" y="654" type="line"/>
			<point x="447" y="609" type="line"/>
			<point x="447" y="577"/>
			<point x="435" y="544"/>
			<point x="380" y="516" type="curve"/>
			<point x="384" y="512"/>
			<point x="392" y="500"/>
			<point x="395" y="493" type="curve"/>
			<point x="455" y="526"/>
			<point x="470" y="569"/>
			<point x="470" y="609" type="curve"/>
			<point x="470" y="654" type="line"/>
		</contour>
		<contour>
			<point x="586" y="654" type="line"/>
			<point x="586" y="584" type="line"/>
			<point x="586" y="552"/>
			<point x="587" y="542"/>
			<point x="594" y="534" type="curve"/>
			<point x="601" y="527"/>
			<point x="612" y="525"/>
			<point x="623" y="525" type="curve"/>
			<point x="627" y="525"/>
			<point x="648" y="525"/>
			<point x="653" y="525" type="curve"/>
			<point x="661" y="525"/>
			<point x="671" y="526"/>
			<point x="677" y="528" type="curve"/>
			<point x="683" y="531"/>
			<point x="689" y="535"/>
			<point x="692" y="543" type="curve"/>
			<point x="695" y="550"/>
			<point x="697" y="573"/>
			<point x="698" y="593" type="curve"/>
			<point x="691" y="595"/>
			<point x="684" y="599"/>
			<point x="679" y="604" type="curve"/>
			<point x="678" y="584"/>
			<point x="677" y="569"/>
			<point x="676" y="563" type="curve"/>
			<point x="674" y="557"/>
			<point x="671" y="553"/>
			<point x="668" y="552" type="curve"/>
			<point x="665" y="551"/>
			<point x="657" y="550"/>
			<point x="650" y="550" type="curve"/>
			<point x="643" y="550"/>
			<point x="630" y="550"/>
			<point x="625" y="550" type="curve"/>
			<point x="619" y="550"/>
			<point x="614" y="550"/>
			<point x="612" y="553" type="curve"/>
			<point x="608" y="555"/>
			<point x="608" y="562"/>
			<point x="608" y="576" type="curve"/>
			<point x="608" y="654" type="line"/>
		</contour>
		<contour>
			<point x="236" y="574" type="line"/>
			<point x="236" y="523" type="line"/>
			<point x="236" y="482"/>
			<point x="227" y="419"/>
			<point x="130" y="383" type="curve"/>
			<point x="135" y="378"/>
			<point x="143" y="368"/>
			<point x="146" y="360" type="curve"/>
			<point x="248" y="407"/>
			<point x="258" y="476"/>
			<point x="258" y="523" type="curve"/>
			<point x="258" y="574" type="line"/>
		</contour>
		<contour>
			<point x="230" y="453" type="line"/>
			<point x="269" y="427"/>
			<point x="316" y="389"/>
			<point x="341" y="363" type="curve"/>
			<point x="354" y="387" type="line"/>
			<point x="329" y="413"/>
			<point x="281" y="449"/>
			<point x="243" y="473" type="curve"/>
		</contour>
		<contour>
			<point x="376" y="652" type="line"/>
			<point x="83" y="652" type="line"/>
			<point x="83" y="324" type="line"/>
			<point x="379" y="324" type="line"/>
			<point x="379" y="354" type="line"/>
			<point x="105" y="354" type="line"/>
			<point x="105" y="622" type="line"/>
			<point x="376" y="622" type="line"/>
		</contour>
		<contour>
			<point x="68" y="268" type="line"/>
			<point x="68" y="238" type="line"/>
			<point x="321" y="238" type="line"/>
			<point x="321" y="268" type="line"/>
		</contour>
		<contour>
			<point x="314" y="268" type="line"/>
			<point x="314" y="-36" type="line"/>
			<point x="314" y="-47"/>
			<point x="313" y="-50"/>
			<point x="303" y="-51" type="curve"/>
			<point x="293" y="-52"/>
			<point x="266" y="-52"/>
			<point x="226" y="-50" type="curve"/>
			<point x="230" y="-60"/>
			<point x="234" y="-72"/>
			<point x="236" y="-81" type="curve"/>
			<point x="278" y="-81"/>
			<point x="305" y="-81"/>
			<point x="320" y="-75" type="curve"/>
			<point x="333" y="-68"/>
			<point x="337" y="-58"/>
			<point x="337" y="-36" type="curve"/>
			<point x="337" y="268" type="line"/>
		</contour>
		<contour>
			<point x="220" y="237" type="line"/>
			<point x="180" y="196"/>
			<point x="119" y="155"/>
			<point x="67" y="126" type="curve"/>
			<point x="72" y="121"/>
			<point x="81" y="108"/>
			<point x="84" y="102" type="curve"/>
			<point x="136" y="134"/>
			<point x="199" y="182"/>
			<point x="241" y="226" type="curve"/>
		</contour>
		<contour>
			<point x="290" y="150" type="line"/>
			<point x="236" y="73"/>
			<point x="142" y="4"/>
			<point x="58" y="-39" type="curve"/>
			<point x="64" y="-45"/>
			<point x="72" y="-58"/>
			<point x="75" y="-64" type="curve"/>
			<point x="158" y="-16"/>
			<point x="253" y="57"/>
			<point x="311" y="139" type="curve"/>
		</contour>
		<contour>
			<point x="385" y="268" type="line"/>
			<point x="385" y="238" type="line"/>
			<point x="652" y="238" type="line"/>
			<point x="652" y="268" type="line"/>
		</contour>
		<contour>
			<point x="642" y="268" type="line"/>
			<point x="642" y="-36" type="line"/>
			<point x="642" y="-46"/>
			<point x="641" y="-50"/>
			<point x="631" y="-51" type="curve"/>
			<point x="620" y="-52"/>
			<point x="592" y="-52"/>
			<point x="550" y="-50" type="curve"/>
			<point x="554" y="-60"/>
			<point x="558" y="-72"/>
			<point x="560" y="-81" type="curve"/>
			<point x="605" y="-81"/>
			<point x="632" y="-81"/>
			<point x="647" y="-75" type="curve"/>
			<point x="661" y="-68"/>
			<point x="665" y="-58"/>
			<point x="665" y="-35" type="curve"/>
			<point x="665" y="268" type="line"/>
		</contour>
		<contour>
			<point x="544" y="240" type="line"/>
			<point x="504" y="199"/>
			<point x="443" y="158"/>
			<point x="391" y="129" type="curve"/>
			<point x="396" y="124"/>
			<point x="405" y="111"/>
			<point x="408" y="105" type="curve"/>
			<point x="460" y="137"/>
			<point x="523" y="185"/>
			<point x="565" y="229" type="curve"/>
		</contour>
		<contour>
			<point x="620" y="160" type="line"/>
			<point x="564" y="80"/>
			<point x="469" y="8"/>
			<point x="384" y="-38" type="curve"/>
			<point x="390" y="-43"/>
			<point x="398" y="-56"/>
			<point x="402" y="-62" type="curve"/>
			<point x="485" y="-12"/>
			<point x="581" y="64"/>
			<point x="641" y="149" type="curve"/>
		</contour>
	</outline>
</glyph>
<glyph name="c22450" format="1">
	<advance width="750"/>
	<outline>
		<contour>
			<point x="147" y="839" type="line"/>
			<point x="147" y="623" type="line"/>
			<point x="170" y="623" type="line"/>
			<point x="170" y="839" type="line"/>
		</contour>
		<contour>
			<point x="68" y="649" type="line"/>
			<point x="68" y="619" type="line"/>
			<point x="240" y="619" type="line"/>
			<point x="240" y="339" type="line"/>
			<point x="68" y="339" type="line"/>
			<point x="68" y="309" type="line"/>
			<point x="263" y="309" type="line"/>
			<point x="263" y="649" type="line"/>
		</contour>
		<contour>
			<point x="57" y="649" type="line"/>
			<point x="57" y="257" type="line"/>
			<point x="80" y="257" type="line"/>
			<point x="80" y="649" type="line"/>
		</contour>
		<contour>
			<point x="147" y="639" type="line"/>
			<point x="147" y="323" type="line"/>
			<point x="147" y="323" type="line"/>
			<point x="147" y="58" type="line"/>
			<point x="170" y="58" type="line"/>
			<point x="170" y="323" type="line"/>
			<point x="170" y="323" type="line"/>
			<point x="170" y="639" type="line"/>
		</contour>
		<contour>
			<point x="27" y="39" type="curve"/>
			<point x="32" y="8" type="line"/>
			<point x="94" y="24"/>
			<point x="176" y="46"/>
			<point x="257" y="67" type="curve"/>
			<point x="255" y="96" type="line"/>
			<point x="169" y="74"/>
			<point x="85" y="52"/>
		</contour>
		<contour>
			<point x="206" y="221" type="line"/>
			<point x="232" y="151"/>
			<point x="255" y="59"/>
			<point x="262" y="-2" type="curve"/>
			<point x="284" y="7" type="line"/>
			<point x="276" y="67"/>
			<point x="253" y="159"/>
			<point x="225" y="229" type="curve"/>
		</contour>
		<contour>
			<point x="295" y="145" type="line"/>
			<point x="295" y="115" type="line"/>
			<point x="721" y="115" type="line"/>
			<point x="721" y="145" type="line"/>
		</contour>
		<contour>
			<point x="317" y="333" type="line"/>
			<point x="317" y="303" type="line"/>
			<point x="705" y="303" type="line"/>
			<point x="705" y="333" type="line"/>
		</contour>
		<contour>
			<point x="331" y="796" type="line"/>
			<point x="331" y="766" type="line"/>
			<point x="451" y="766" type="line"/>
			<point x="451" y="650" type="line"/>
			<point x="331" y="650" type="line"/>
			<point x="331" y="620" type="line"/>
			<point x="473" y="620" type="line"/>
			<point x="473" y="796" type="line"/>
		</contour>
		<contour>
			<point x="414" y="447" type="line"/>
			<point x="414" y="127" type="line"/>
			<point x="437" y="127" type="line"/>
			<point x="437" y="447" type="line"/>
		</contour>
		<contour>
			<point x="581" y="447" type="line"/>
			<point x="581" y="127" type="line"/>
			<point x="604" y="127" type="line"/>
			<point x="604" y="447" type="line"/>
		</contour>
		<contour>
			<point x="319" y="796" type="line"/>
			<point x="319" y="522" type="line"/>
			<point x="319" y="478"/>
			<point x="329" y="470"/>
			<point x="368" y="470" type="curve"/>
			<point x="376" y="470"/>
			<point x="449" y="470"/>
			<point x="457" y="470" type="curve"/>
			<point x="488" y="470"/>
			<point x="495" y="488"/>
			<point x="497" y="562" type="curve"/>
			<point x="491" y="564"/>
			<point x="482" y="568"/>
			<point x="476" y="574" type="curve"/>
			<point x="475" y="507"/>
			<point x="471" y="498"/>
			<point x="454" y="498" type="curve"/>
			<point x="439" y="498"/>
			<point x="379" y="498"/>
			<point x="368" y="498" type="curve"/>
			<point x="345" y="498"/>
			<point x="341" y="502"/>
			<point x="341" y="521" type="curve"/>
			<point x="341" y="796" type="line"/>
		</contour>
		<contour>
			<point x="544" y="796" type="line"/>
			<point x="544" y="766" type="line"/>
			<point x="668" y="766" type="line"/>
			<point x="668" y="650" type="line"/>
			<point x="544" y="650" type="line"/>
			<point x="544" y="620" type="line"/>
			<point x="691" y="620" type="line"/>
			<point x="691" y="796" type="line"/>
		</contour>
		<contour>
			<point x="532" y="796" type="line"/>
			<point x="532" y="522" type="line"/>
			<point x="532" y="478"/>
			<point x="543" y="470"/>
			<point x="583" y="470" type="curve"/>
			<point x="591" y="470"/>
			<point x="668" y="470"/>
			<point x="677" y="470" type="curve"/>
			<point x="709" y="470"/>
			<point x="716" y="488"/>
			<point x="719" y="562" type="curve"/>
			<point x="712" y="564"/>
			<point x="704" y="568"/>
			<point x="698" y="574" type="curve"/>
			<point x="696" y="507"/>
			<point x="692" y="498"/>
			<point x="674" y="498" type="curve"/>
			<point x="659" y="498"/>
			<point x="594" y="498"/>
			<point x="583" y="498" type="curve"/>
			<point x="558" y="498"/>
			<point x="554" y="502"/>
			<point x="554" y="522" type="curve"/>
			<point x="554" y="796" type="line"/>
		</contour>
		<contour>
			<point x="556" y="69" type="line"/>
			<point x="611" y="25"/>
			<point x="677" y="-39"/>
			<point x="711" y="-80" type="curve"/>
			<point x="729" y="-60" type="line"/>
			<point x="694" y="-19"/>
			<point x="627" y="43"/>
			<point x="573" y="86" type="curve"/>
		</contour>
		<contour>
			<point x="443" y="87" type="line"/>
			<point x="410" y="37"/>
			<point x="341" y="-21"/>
			<point x="281" y="-57" type="curve"/>
			<point x="287" y="-63"/>
			<point x="293" y="-75"/>
			<point x="297" y="-82" type="curve"/>
			<point x="356" y="-45"/>
			<point x="425" y="14"/>
			<point x="468" y="71" type="curve"/>
		</contour>
	</outline>
</glyph>
<glyph name="c2267" format="1">
	<advance width="750"/>
	<outline>
		<contour>
			<point x="278" y="683" type="line"/>
			<point x="278" y="359" type="line"/>
			<point x="300" y="359" type="line"/>
			<point x="300" y="683" type="line"/>
		</contour>
		<contour>
			<point x="470" y="683" type="line"/>
			<point x="470" y="359" type="line"/>
			<point x="493" y="359" type="line"/>
			<point x="493" y="683" type="line"/>
		</contour>
		<contour>
			<point x="213" y="197" type="line"/>
			<point x="213" y="167" type="line"/>
			<point x="403" y="167" type="line"/>
			<point x="403" y="197" type="line"/>
		</contour>
		<contour>
			<point x="202" y="314" type="line"/>
			<point x="202" y="-37" type="line"/>
			<point x="224" y="-37" type="line"/>
			<point x="224" y="314" type="line"/>
		</contour>
		<contour>
			<point x="117" y="-42" type="curve"/>
			<point x="121" y="-73" type="line"/>
			<point x="197" y="-61"/>
			<point x="307" y="-43"/>
			<point x="414" y="-25" type="curve"/>
			<point x="414" y="4" type="line"/>
			<point x="302" y="-14"/>
			<point x="190" y="-32"/>
		</contour>
		<contour>
			<point x="659" y="253" type="line"/>
			<point x="613" y="216"/>
			<point x="526" y="177"/>
			<point x="452" y="149" type="curve"/>
			<point x="456" y="141"/>
			<point x="460" y="131"/>
			<point x="462" y="124" type="curve"/>
			<point x="537" y="151"/>
			<point x="624" y="189"/>
			<point x="680" y="229" type="curve"/>
		</contour>
		<contour>
			<point x="446" y="314" type="line"/>
			<point x="446" y="-12" type="line"/>
			<point x="446" y="-64"/>
			<point x="460" y="-74"/>
			<point x="514" y="-74" type="curve"/>
			<point x="525" y="-74"/>
			<point x="643" y="-74"/>
			<point x="655" y="-74" type="curve"/>
			<point x="701" y="-74"/>
			<point x="710" y="-48"/>
			<point x="713" y="59" type="curve"/>
			<point x="706" y="61"/>
			<point x="697" y="66"/>
			<point x="691" y="72" type="curve"/>
			<point x="689" y="-29"/>
			<point x="683" y="-45"/>
			<point x="653" y="-45" type="curve"/>
			<point x="629" y="-45"/>
			<point x="530" y="-45"/>
			<point x="512" y="-45" type="curve"/>
			<point x="475" y="-45"/>
			<point x="468" y="-39"/>
			<point x="468" y="-12" type="curve"/>
			<point x="468" y="314" type="line"/>
		</contour>
		<contour>
			<point x="106" y="573" type="line"/>
			<point x="106" y="543" type="line"/>
			<point x="667" y="543" type="line"/>
			<point x="667" y="377" type="line"/>
			<point x="106" y="377" type="line"/>
			<point x="106" y="347" type="line"/>
			<point x="689" y="347" type="line"/>
			<point x="689" y="573" type="line"/>
		</contour>
		<contour>
			<point x="384" y="839" type="line"/>
			<point x="384" y="722" type="line"/>
			<point x="407" y="722" type="line"/>
			<point x="407" y="839" type="line"/>
		</contour>
		<contour>
			<point x="109" y="739" type="line"/>
			<point x="109" y="709" type="line"/>
			<point x="710" y="709" type="line"/>
			<point x="710" y="739" type="line"/>
		</contour>
		<contour>
			<point x="97" y="739" type="line"/>
			<point x="97" y="433" type="line"/>
			<point x="97" y="285"/>
			<point x="90" y="84"/>
			<point x="26" y="-62" type="curve"/>
			<point x="32" y="-66"/>
			<point x="41" y="-74"/>
			<point x="45" y="-80" type="curve"/>
			<point x="110" y="70"/>
			<point x="119" y="282"/>
			<point x="119" y="433" type="curve"/>
			<point x="119" y="739" type="line"/>
		</contour>
	</outline>
</glyph>
<glyph name="c2663" format="1">
	<advance width="750"/>
	<outline>
		<contour>
			<point x="359" y="-20" type="line"/>
			<point x="359" y="-50" type="line"/>
			<point x="724" y="-50" type="line"/>
			<point x="724" y="-20" type="line"/>
		</contour>
		<contour>
			<point x="401" y="165" type="line"/>
			<point x="401" y="135" type="line"/>
			<point x="688" y="135" type="line"/>
			<point x="688" y="165" type="line"/>
		</contour>
		<contour>
			<point x="529" y="440" type="line"/>
			<point x="529" y="-42" type="line"/>
			<point x="551" y="-42" type="line"/>
			<point x="551" y="440" type="line"/>
		</contour>
		<contour>
			<point x="413" y="615" type="line"/>
			<point x="657" y="615" type="line"/>
			<point x="657" y="492" type="line"/>
			<point x="413" y="492" type="line"/>
		</contour>
		<contour>
			<point x="413" y="766" type="line"/>
			<point x="657" y="766" type="line"/>
			<point x="657" y="645" type="line"/>
			<point x="413" y="645" type="line"/>
		</contour>
		<contour>
			<point x="391" y="796" type="line"/>
			<point x="391" y="462" type="line"/>
			<point x="680" y="462" type="line"/>
			<point x="680" y="796" type="line"/>
		</contour>
		<contour>
			<point x="431" y="437" type="line"/>
			<point x="413" y="350"/>
			<point x="383" y="265"/>
			<point x="344" y="206" type="curve"/>
			<point x="350" y="202"/>
			<point x="361" y="193"/>
			<point x="365" y="189" type="curve"/>
			<point x="401" y="249"/>
			<point x="434" y="339"/>
			<point x="454" y="431" type="curve"/>
		</contour>
		<contour>
			<point x="413" y="324" type="line"/>
			<point x="402" y="294" type="line"/>
			<point x="701" y="294" type="line"/>
			<point x="701" y="324" type="line"/>
		</contour>
		<contour>
			<point x="49" y="597" type="line"/>
			<point x="49" y="-77" type="line"/>
			<point x="71" y="-77" type="line"/>
			<point x="71" y="567" type="line"/>
			<point x="315" y="567" type="line"/>
			<point x="315" y="-63" type="line"/>
			<point x="338" y="-63" type="line"/>
			<point x="338" y="597" type="line"/>
		</contour>
		<contour>
			<point x="61" y="204" type="line"/>
			<point x="61" y="174" type="line"/>
			<point x="321" y="174" type="line"/>
			<point x="321" y="204" type="line"/>
		</contour>
		<contour>
			<point x="61" y="32" type="line"/>
			<point x="61" y="2" type="line"/>
			<point x="321" y="2" type="line"/>
			<point x="321" y="32" type="line"/>
		</contour>
		<contour>
			<point x="32" y="791" type="line"/>
			<point x="32" y="761" type="line"/>
			<point x="350" y="761" type="line"/>
			<point x="350" y="791" type="line"/>
		</contour>
		<contour>
			<point x="139" y="780" type="line"/>
			<point x="139" y="582" type="line"/>
			<point x="161" y="582" type="line"/>
			<point x="161" y="780" type="line"/>
		</contour>
		<contour>
			<point x="221" y="780" type="line"/>
			<point x="221" y="582" type="line"/>
			<point x="243" y="582" type="line"/>
			<point x="243" y="780" type="line"/>
		</contour>
		<contour>
			<point x="139" y="583" type="line"/>
			<point x="139" y="489" type="line"/>
			<point x="139" y="429"/>
			<point x="128" y="355"/>
			<point x="70" y="298" type="curve"/>
			<point x="75" y="294"/>
			<point x="83" y="285"/>
			<point x="87" y="278" type="curve"/>
			<point x="147" y="339"/>
			<point x="161" y="423"/>
			<point x="161" y="489" type="curve"/>
			<point x="161" y="583" type="line"/>
		</contour>
		<contour>
			<point x="221" y="583" type="line"/>
			<point x="221" y="383" type="line"/>
			<point x="221" y="344"/>
			<point x="230" y="339"/>
			<point x="257" y="339" type="curve"/>
			<point x="263" y="339"/>
			<point x="302" y="339"/>
			<point x="308" y="339" type="curve"/>
			<point x="326" y="339"/>
			<point x="335" y="347"/>
			<point x="337" y="360" type="curve"/>
			<point x="330" y="363"/>
			<point x="321" y="365"/>
			<point x="316" y="371" type="curve"/>
			<point x="314" y="369"/>
			<point x="313" y="369"/>
			<point x="303" y="369" type="curve"/>
			<point x="295" y="369"/>
			<point x="263" y="369"/>
			<point x="257" y="369" type="curve"/>
			<point x="245" y="369"/>
			<point x="243" y="371"/>
			<point x="243" y="383" type="curve"/>
			<point x="243" y="583" type="line"/>
		</contour>
	</outline>
</glyph>
<glyph name="c3452" format="1">
	<advance width="750"/>
	<outline>
		<contour>
			<point x="269" y="355" type="line"/>
			<point x="269" y="325" type="line"/>
			<point x="624" y="325" type="line"/>
			<point x="624" y="355" type="line"/>
		</contour>
		<contour>
			<point x="269" y="559" type="line"/>
			<point x="269" y="529" type="line"/>
			<point x="678" y="529" type="line"/>
			<point x="678" y="559" type="line"/>
		</contour>
		<contour>
			<point x="455" y="674" type="line"/>
			<point x="455" y="336" type="line"/>
			<point x="477" y="336" type="line"/>
			<point x="477" y="674" type="line"/>
		</contour>
		<contour>
			<point x="617" y="355" type="line"/>
			<point x="617" y="348" type="line"/>
			<point x="561" y="124"/>
			<point x="404" y="-6"/>
			<point x="253" y="-56" type="curve"/>
			<point x="258" y="-63"/>
			<point x="264" y="-75"/>
			<point x="266" y="-83" type="curve"/>
			<point x="422" y="-27"/>
			<point x="581" y="105"/>
			<point x="641" y="346" type="curve"/>
			<point x="626" y="357" type="line"/>
			<point x="622" y="355" type="line"/>
		</contour>
		<contour>
			<point x="345" y="346" type="curve"/>
			<point x="324" y="336" type="line"/>
			<point x="384" y="116"/>
			<point x="517" y="-25"/>
			<point x="698" y="-83" type="curve"/>
			<point x="701" y="-74"/>
			<point x="708" y="-63"/>
			<point x="713" y="-56" type="curve"/>
			<point x="532" y="-4"/>
			<point x="403" y="134"/>
		</contour>
		<contour>
			<point x="258" y="559" type="line"/>
			<point x="258" y="369" type="line"/>
			<point x="258" y="238"/>
			<point x="245" y="65"/>
			<point x="153" y="-62" type="curve"/>
			<point x="159" y="-66"/>
			<point x="167" y="-75"/>
			<point x="170" y="-82" type="curve"/>
			<point x="264" y="50"/>
			<point x="281" y="233"/>
			<point x="281" y="368" type="curve"/>
			<point x="281" y="559" type="line"/>
		</contour>
		<contour>
			<point x="673" y="559" type="line"/>
			<point x="673" y="552" type="line"/>
			<point x="659" y="501"/>
			<point x="641" y="442"/>
			<point x="625" y="404" type="curve"/>
			<point x="644" y="395" type="line"/>
			<point x="661" y="434"/>
			<point x="680" y="497"/>
			<point x="698" y="552" type="curve"/>
			<point x="683" y="561" type="line"/>
			<point x="677" y="559" type="line"/>
		</contour>
		<contour>
			<point x="155" y="739" type="line"/>
			<point x="155" y="709" type="line"/>
			<point x="713" y="709" type="line"/>
			<point x="713" y="739" type="line"/>
		</contour>
		<contour>
			<point x="143" y="739" type="line"/>
			<point x="143" y="407" type="line"/>
			<point x="143" y="260"/>
			<point x="133" y="73"/>
			<point x="44" y="-62" type="curve"/>
			<point x="49" y="-67"/>
			<point x="57" y="-76"/>
			<point x="61" y="-83" type="curve"/>
			<point x="152" y="57"/>
			<point x="165" y="256"/>
			<point x="165" y="407" type="curve"/>
			<point x="165" y="739" type="line"/>
		</contour>
		<contour>
			<point x="404" y="839" type="line"/>
			<point x="404" y="722" type="line"/>
			<point x="426" y="722" type="line"/>
			<point x="426" y="839" type="line"/>
		</contour>
		<contour>
			<point x="39" y="640" type="line"/>
			<point x="65" y="578"/>
			<point x="87" y="496"/>
			<point x="94" y="444" type="curve"/>
			<point x="116" y="456" type="line"/>
			<point x="110" y="506"/>
			<point x="86" y="587"/>
			<point x="60" y="649" type="curve"/>
		</contour>
		<contour>
			<point x="24" y="243" type="curve"/>
			<point x="37" y="218" type="line"/>
			<point x="74" y="246"/>
			<point x="116" y="279"/>
			<point x="157" y="312" type="curve"/>
			<point x="152" y="337" type="line"/>
			<point x="103" y="300"/>
			<point x="57" y="265"/>
		</contour>
	</outline>
</glyph>
<glyph name="c3555" format="1">
	<advance width="750"/>
	<outline>
		<contour>
			<point x="188" y="839" type="line"/>
			<point x="163" y="771"/>
			<point x="117" y="685"/>
			<point x="54" y="620" type="curve"/>
			<point x="60" y="617"/>
			<point x="68" y="609"/>
			<point x="72" y="603" type="curve"/>
			<point x="137" y="672"/>
			<point x="183" y="760"/>
			<point x="212" y="835" type="curve"/>
		</contour>
		<contour>
			<point x="159" y="743" type="line"/>
			<point x="141" y="713" type="line"/>
			<point x="676" y="713" type="line"/>
			<point x="676" y="743" type="line"/>
		</contour>
		<contour>
			<point x="161" y="282" type="line"/>
			<point x="143" y="252" type="line"/>
			<point x="310" y="252" type="line"/>
			<point x="310" y="282" type="line"/>
		</contour>
		<contour>
			<point x="38" y="578" type="line"/>
			<point x="38" y="548" type="line"/>
			<point x="713" y="548" type="line"/>
			<point x="713" y="578" type="line"/>
		</contour>
		<contour>
			<point x="56" y="413" type="line"/>
			<point x="56" y="383" type="line"/>
			<point x="698" y="383" type="line"/>
			<point x="698" y="413" type="line"/>
		</contour>
		<contour>
			<point x="149" y="735" type="line"/>
			<point x="149" y="397" type="line"/>
			<point x="171" y="397" type="line"/>
			<point x="171" y="735" type="line"/>
		</contour>
		<contour>
			<point x="285" y="735" type="line"/>
			<point x="285" y="397" type="line"/>
			<point x="308" y="397" type="line"/>
			<point x="308" y="735" type="line"/>
		</contour>
		<contour>
			<point x="429" y="735" type="line"/>
			<point x="429" y="397" type="line"/>
			<point x="452" y="397" type="line"/>
			<point x="452" y="735" type="line"/>
		</contour>
		<contour>
			<point x="571" y="735" type="line"/>
			<point x="571" y="397" type="line"/>
			<point x="593" y="397" type="line"/>
			<point x="593" y="735" type="line"/>
		</contour>
		<contour>
			<point x="191" y="376" type="line"/>
			<point x="158" y="277"/>
			<point x="95" y="192"/>
			<point x="26" y="137" type="curve"/>
			<point x="32" y="132"/>
			<point x="42" y="121"/>
			<point x="46" y="117" type="curve"/>
			<point x="112" y="175"/>
			<point x="177" y="264"/>
			<point x="213" y="369" type="curve"/>
		</contour>
		<contour>
			<point x="305" y="282" type="line"/>
			<point x="305" y="274" type="line"/>
			<point x="265" y="98"/>
			<point x="164" y="-5"/>
			<point x="47" y="-57" type="curve"/>
			<point x="53" y="-63"/>
			<point x="60" y="-74"/>
			<point x="64" y="-81" type="curve"/>
			<point x="183" y="-25"/>
			<point x="286" y="81"/>
			<point x="331" y="274" type="curve"/>
			<point x="317" y="284" type="line"/>
			<point x="311" y="282" type="line"/>
		</contour>
		<contour>
			<point x="102" y="195" type="line"/>
			<point x="146" y="158"/>
			<point x="197" y="104"/>
			<point x="223" y="67" type="curve"/>
			<point x="239" y="89" type="line"/>
			<point x="213" y="126"/>
			<point x="161" y="178"/>
			<point x="119" y="214" type="curve"/>
		</contour>
		<contour>
			<point x="361" y="280" type="line"/>
			<point x="361" y="250" type="line"/>
			<point x="695" y="250" type="line"/>
			<point x="695" y="280" type="line"/>
		</contour>
		<contour>
			<point x="325" y="92" type="line"/>
			<point x="325" y="62" type="line"/>
			<point x="720" y="62" type="line"/>
			<point x="720" y="92" type="line"/>
		</contour>
		<contour>
			<point x="540" y="372" type="line"/>
			<point x="540" y="-83" type="line"/>
			<point x="563" y="-83" type="line"/>
			<point x="563" y="372" type="line"/>
		</contour>
		<contour>
			<point x="410" y="272" type="line"/>
			<point x="410" y="74" type="line"/>
			<point x="432" y="74" type="line"/>
			<point x="432" y="272" type="line"/>
		</contour>
	</outline>
</glyph>
<glyph name="c3758" format="1">
	<advance width="750"/>
	<outline>
		<contour>
			<point x="62" y="177" type="line"/>
			<point x="62" y="147" type="line"/>
			<point x="599" y="147" type="line"/>
			<point x="599" y="177" type="line"/>
		</contour>
		<contour>
			<point x="161" y="536" type="line"/>
			<point x="590" y="536" type="line"/>
			<point x="590" y="469" type="line"/>
			<point x="161" y="469" type="line"/>
		</contour>
		<contour>
			<point x="161" y="631" type="line"/>
			<point x="590" y="631" type="line"/>
			<point x="590" y="566" type="line"/>
			<point x="161" y="566" type="line"/>
		</contour>
		<contour>
			<point x="139" y="661" type="line"/>
			<point x="139" y="439" type="line"/>
			<point x="612" y="439" type="line"/>
			<point x="612" y="661" type="line"/>
		</contour>
		<contour>
			<point x="477" y="350" type="line"/>
			<point x="647" y="350" type="line"/>
			<point x="647" y="262" type="line"/>
			<point x="477" y="262" type="line"/>
		</contour>
		<contour>
			<point x="287" y="350" type="line"/>
			<point x="455" y="350" type="line"/>
			<point x="455" y="262" type="line"/>
			<point x="287" y="262" type="line"/>
		</contour>
		<contour>
			<point x="104" y="350" type="line"/>
			<point x="265" y="350" type="line"/>
			<point x="265" y="262" type="line"/>
			<point x="104" y="262" type="line"/>
		</contour>
		<contour>
			<point x="82" y="380" type="line"/>
			<point x="82" y="232" type="line"/>
			<point x="669" y="232" type="line"/>
			<point x="669" y="380" type="line"/>
		</contour>
		<contour>
			<point x="595" y="177" type="line"/>
			<point x="595" y="170" type="line"/>
			<point x="492" y="32"/>
			<point x="245" y="-32"/>
			<point x="33" y="-52" type="curve"/>
			<point x="38" y="-60"/>
			<point x="42" y="-72"/>
			<point x="44" y="-81" type="curve"/>
			<point x="259" y="-57"/>
			<point x="509" y="9"/>
			<point x="621" y="162" type="curve"/>
			<point x="606" y="179" type="line"/>
			<point x="601" y="177" type="line"/>
		</contour>
		<contour>
			<point x="178" y="155" type="curve"/>
			<point x="159" y="139" type="line"/>
			<point x="268" y="12"/>
			<point x="499" y="-57"/>
			<point x="709" y="-80" type="curve"/>
			<point x="712" y="-71"/>
			<point x="716" y="-59"/>
			<point x="722" y="-52" type="curve"/>
			<point x="509" y="-32"/>
			<point x="281" y="34"/>
		</contour>
		<contour>
			<point x="38" y="767" type="line"/>
			<point x="38" y="737" type="line"/>
			<point x="714" y="737" type="line"/>
			<point x="714" y="767" type="line"/>
		</contour>
		<contour>
			<point x="233" y="839" type="line"/>
			<point x="233" y="681" type="line"/>
			<point x="255" y="681" type="line"/>
			<point x="255" y="839" type="line"/>
		</contour>
		<contour>
			<point x="491" y="839" type="line"/>
			<point x="491" y="681" type="line"/>
			<point x="514" y="681" type="line"/>
			<point x="514" y="839" type="line"/>
		</contour>
	</outline>
</glyph>
<glyph name="c6260" format="1">
	<advance width="750"/>
	<outline>
		<contour>
			<point x="95" y="800" type="line"/>
			<point x="95" y="770" type="line"/>
			<point x="251" y="770" type="line"/>
			<point x="251" y="800" type="line"/>
		</contour>
		<contour>
			<point x="95" y="554" type="line"/>
			<point x="95" y="524" type="line"/>
			<point x="251" y="524" type="line"/>
			<point x="251" y="554" type="line"/>
		</contour>
		<contour>
			<point x="291" y="-21" type="line"/>
			<point x="291" y="-51" type="line"/>
			<point x="720" y="-51" type="line"/>
			<point x="720" y="-21" type="line"/>
		</contour>
		<contour>
			<point x="332" y="162" type="line"/>
			<point x="332" y="131" type="line"/>
			<point x="680" y="131" type="line"/>
			<point x="680" y="162" type="line"/>
		</contour>
		<contour>
			<point x="92" y="302" type="line"/>
			<point x="92" y="272" type="line"/>
			<point x="251" y="272" type="line"/>
			<point x="251" y="302" type="line"/>
		</contour>
		<contour>
			<point x="83" y="800" type="line"/>
			<point x="83" y="438" type="line"/>
			<point x="83" y="287"/>
			<point x="79" y="83"/>
			<point x="23" y="-64" type="curve"/>
			<point x="29" y="-67"/>
			<point x="38" y="-75"/>
			<point x="42" y="-81" type="curve"/>
			<point x="98" y="69"/>
			<point x="106" y="284"/>
			<point x="106" y="438" type="curve"/>
			<point x="106" y="800" type="line"/>
		</contour>
		<contour>
			<point x="239" y="800" type="line"/>
			<point x="239" y="-31" type="line"/>
			<point x="239" y="-46"/>
			<point x="235" y="-50"/>
			<point x="224" y="-51" type="curve"/>
			<point x="214" y="-52"/>
			<point x="179" y="-52"/>
			<point x="135" y="-51" type="curve"/>
			<point x="139" y="-60"/>
			<point x="143" y="-73"/>
			<point x="145" y="-80" type="curve"/>
			<point x="197" y="-81"/>
			<point x="225" y="-80"/>
			<point x="240" y="-75" type="curve"/>
			<point x="255" y="-69"/>
			<point x="262" y="-57"/>
			<point x="262" y="-30" type="curve"/>
			<point x="262" y="800" type="line"/>
		</contour>
		<contour>
			<point x="354" y="610" type="line"/>
			<point x="653" y="610" type="line"/>
			<point x="653" y="482" type="line"/>
			<point x="354" y="482" type="line"/>
		</contour>
		<contour>
			<point x="354" y="766" type="line"/>
			<point x="653" y="766" type="line"/>
			<point x="653" y="640" type="line"/>
			<point x="354" y="640" type="line"/>
		</contour>
		<contour>
			<point x="332" y="796" type="line"/>
			<point x="332" y="452" type="line"/>
			<point x="676" y="452" type="line"/>
			<point x="676" y="796" type="line"/>
		</contour>
		<contour>
			<point x="493" y="425" type="line"/>
			<point x="493" y="-34" type="line"/>
			<point x="515" y="-34" type="line"/>
			<point x="515" y="425" type="line"/>
		</contour>
		<contour>
			<point x="374" y="427" type="line"/>
			<point x="351" y="340"/>
			<point x="314" y="257"/>
			<point x="271" y="200" type="curve"/>
			<point x="277" y="195"/>
			<point x="287" y="185"/>
			<point x="290" y="181" type="curve"/>
			<point x="332" y="240"/>
			<point x="372" y="329"/>
			<point x="396" y="420" type="curve"/>
		</contour>
		<contour>
			<point x="349" y="320" type="line"/>
			<point x="338" y="290" type="line"/>
			<point x="697" y="290" type="line"/>
			<point x="697" y="320" type="line"/>
		</contour>
	</outline>
</glyph>
<glyph name="c6378" format="1">
	<advance width="750"/>
	<outline>
		<contour>
			<point x="40" y="755" type="line"/>
			<point x="40" y="725" type="line"/>
			<point x="716" y="725" type="line"/>
			<point x="716" y="755" type="line"/>
		</contour>
		<contour>
			<point x="68" y="625" type="line"/>
			<point x="68" y="595" type="line"/>
			<point x="689" y="595" type="line"/>
			<point x="689" y="625" type="line"/>
		</contour>
		<contour>
			<point x="81" y="245" type="line"/>
			<point x="81" y="215" type="line"/>
			<point x="676" y="215" type="line"/>
			<point x="676" y="245" type="line"/>
		</contour>
		<contour>
			<point x="107" y="121" type="line"/>
			<point x="107" y="91" type="line"/>
			<point x="647" y="91" type="line"/>
			<point x="647" y="121" type="line"/>
		</contour>
		<contour>
			<point x="38" y="-10" type="line"/>
			<point x="38" y="-40" type="line"/>
			<point x="714" y="-40" type="line"/>
			<point x="714" y="-10" type="line"/>
		</contour>
		<contour>
			<point x="233" y="839" type="line"/>
			<point x="233" y="650" type="line"/>
			<point x="256" y="650" type="line"/>
			<point x="256" y="839" type="line"/>
		</contour>
		<contour>
			<point x="491" y="839" type="line"/>
			<point x="491" y="650" type="line"/>
			<point x="513" y="650" type="line"/>
			<point x="513" y="839" type="line"/>
		</contour>
		<contour>
			<point x="362" y="612" type="line"/>
			<point x="362" y="-27" type="line"/>
			<point x="384" y="-27" type="line"/>
			<point x="384" y="612" type="line"/>
		</contour>
		<contour>
			<point x="144" y="480" type="line"/>
			<point x="608" y="480" type="line"/>
			<point x="608" y="353" type="line"/>
			<point x="144" y="353" type="line"/>
		</contour>
		<contour>
			<point x="122" y="510" type="line"/>
			<point x="122" y="323" type="line"/>
			<point x="631" y="323" type="line"/>
			<point x="631" y="510" type="line"/>
		</contour>
	</outline>
</glyph>
<glyph name="c6385" format="1">
	<advance width="750"/>
	<outline>
		<contour>
			<point x="38" y="534" type="line"/>
			<point x="38" y="504" type="line"/>
			<point x="615" y="504" type="line"/>
			<point x="615" y="534" type="line"/>
		</contour>
		<contour>
			<point x="614" y="534" type="line"/>
			<point x="614" y="504" type="line"/>
			<point x="719" y="504" type="line"/>
			<point x="719" y="534" type="line"/>
		</contour>
		<contour>
			<point x="362" y="291" type="line"/>
			<point x="362" y="-78" type="line"/>
			<point x="385" y="-78" type="line"/>
			<point x="385" y="291" type="line"/>
		</contour>
		<contour>
			<point x="150" y="190" type="line"/>
			<point x="150" y="-45" type="line"/>
			<point x="173" y="-45" type="line"/>
			<point x="173" y="160" type="line"/>
			<point x="599" y="160" type="line"/>
			<point x="599" y="190" type="line"/>
		</contour>
		<contour>
			<point x="585" y="190" type="line"/>
			<point x="585" y="-1" type="line"/>
			<point x="585" y="-12"/>
			<point x="583" y="-15"/>
			<point x="572" y="-16" type="curve"/>
			<point x="561" y="-17"/>
			<point x="527" y="-18"/>
			<point x="479" y="-16" type="curve"/>
			<point x="483" y="-25"/>
			<point x="487" y="-35"/>
			<point x="488" y="-44" type="curve"/>
			<point x="543" y="-44"/>
			<point x="573" y="-44"/>
			<point x="589" y="-38" type="curve"/>
			<point x="604" y="-32"/>
			<point x="608" y="-22"/>
			<point x="608" y="-1" type="curve"/>
			<point x="608" y="190" type="line"/>
		</contour>
		<contour>
			<point x="58" y="302" type="line"/>
			<point x="58" y="151" type="line"/>
			<point x="80" y="151" type="line"/>
			<point x="80" y="272" type="line"/>
			<point x="670" y="272" type="line"/>
			<point x="670" y="151" type="line"/>
			<point x="692" y="151" type="line"/>
			<point x="692" y="302" type="line"/>
		</contour>
		<contour>
			<point x="125" y="652" type="line"/>
			<point x="125" y="622" type="line"/>
			<point x="601" y="622" type="line"/>
			<point x="601" y="410" type="line"/>
			<point x="121" y="410" type="line"/>
			<point x="121" y="380" type="line"/>
			<point x="623" y="380" type="line"/>
			<point x="623" y="652" type="line"/>
		</contour>
		<contour>
			<point x="48" y="769" type="line"/>
			<point x="48" y="739" type="line"/>
			<point x="707" y="739" type="line"/>
			<point x="707" y="769" type="line"/>
		</contour>
		<contour>
			<point x="233" y="839" type="line"/>
			<point x="233" y="677" type="line"/>
			<point x="255" y="677" type="line"/>
			<point x="255" y="839" type="line"/>
		</contour>
		<contour>
			<point x="491" y="839" type="line"/>
			<point x="491" y="677" type="line"/>
			<point x="514" y="677" type="line"/>
			<point x="514" y="839" type="line"/>
		</contour>
	</outline>
</glyph>
<glyph name="c6440" format="1">
	<advance width="750"/>
	<outline>
		<contour>
			<point x="38" y="761" type="line"/>
			<point x="38" y="731" type="line"/>
			<point x="714" y="731" type="line"/>
			<point x="714" y="761" type="line"/>
		</contour>
		<contour>
			<point x="44" y="562" type="line"/>
			<point x="44" y="532" type="line"/>
			<point x="611" y="532" type="line"/>
			<point x="611" y="562" type="line"/>
		</contour>
		<contour>
			<point x="607" y="562" type="line"/>
			<point x="607" y="532" type="line"/>
			<point x="709" y="532" type="line"/>
			<point x="709" y="562" type="line"/>
		</contour>
		<contour>
			<point x="38" y="153" type="line"/>
			<point x="38" y="123" type="line"/>
			<point x="713" y="123" type="line"/>
			<point x="713" y="153" type="line"/>
		</contour>
		<contour>
			<point x="58" y="372" type="line"/>
			<point x="58" y="342" type="line"/>
			<point x="332" y="342" type="line"/>
			<point x="332" y="372" type="line"/>
		</contour>
		<contour>
			<point x="233" y="839" type="line"/>
			<point x="233" y="677" type="line"/>
			<point x="255" y="677" type="line"/>
			<point x="255" y="839" type="line"/>
		</contour>
		<contour>
			<point x="179" y="364" type="line"/>
			<point x="179" y="233" type="line"/>
			<point x="201" y="233" type="line"/>
			<point x="201" y="364" type="line"/>
		</contour>
		<contour>
			<point x="491" y="839" type="line"/>
			<point x="491" y="677" type="line"/>
			<point x="514" y="677" type="line"/>
			<point x="514" y="839" type="line"/>
		</contour>
		<contour>
			<point x="413" y="346" type="line"/>
			<point x="641" y="346" type="line"/>
			<point x="641" y="252" type="line"/>
			<point x="413" y="252" type="line"/>
		</contour>
		<contour>
			<point x="391" y="376" type="line"/>
			<point x="391" y="222" type="line"/>
			<point x="664" y="222" type="line"/>
			<point x="664" y="376" type="line"/>
		</contour>
		<contour>
			<point x="120" y="656" type="line"/>
			<point x="120" y="626" type="line"/>
			<point x="598" y="626" type="line"/>
			<point x="598" y="463" type="line"/>
			<point x="120" y="463" type="line"/>
			<point x="120" y="433" type="line"/>
			<point x="620" y="433" type="line"/>
			<point x="620" y="656" type="line"/>
		</contour>
		<contour>
			<point x="530" y="228" type="line"/>
			<point x="530" y="-32" type="line"/>
			<point x="530" y="-46"/>
			<point x="527" y="-51"/>
			<point x="513" y="-52" type="curve"/>
			<point x="499" y="-53"/>
			<point x="455" y="-54"/>
			<point x="392" y="-52" type="curve"/>
			<point x="396" y="-61"/>
			<point x="401" y="-71"/>
			<point x="402" y="-80" type="curve"/>
			<point x="472" y="-80"/>
			<point x="511" y="-81"/>
			<point x="529" y="-75" type="curve"/>
			<point x="547" y="-69"/>
			<point x="552" y="-58"/>
			<point x="552" y="-32" type="curve"/>
			<point x="552" y="228" type="line"/>
		</contour>
		<contour>
			<point x="41" y="235" type="curve"/>
			<point x="43" y="203" type="line"/>
			<point x="121" y="211"/>
			<point x="233" y="223"/>
			<point x="345" y="235" type="curve"/>
			<point x="346" y="264" type="line"/>
			<point x="230" y="252"/>
			<point x="116" y="241"/>
		</contour>
		<contour>
			<point x="164" y="85" type="line"/>
			<point x="216" y="58"/>
			<point x="276" y="12"/>
			<point x="307" y="-23" type="curve"/>
			<point x="321" y="1" type="line"/>
			<point x="290" y="36"/>
			<point x="230" y="80"/>
			<point x="179" y="106" type="curve"/>
		</contour>
	</outline>
</glyph>
<glyph name="c6447" format="1">
	<advance width="750"/>
	<outline>
		<contour>
			<point x="38" y="761" type="line"/>
			<point x="38" y="731" type="line"/>
			<point x="714" y="731" type="line"/>
			<point x="714" y="761" type="line"/>
		</contour>
		<contour>
			<point x="53" y="329" type="line"/>
			<point x="53" y="299" type="line"/>
			<point x="701" y="299" type="line"/>
			<point x="701" y="329" type="line"/>
		</contour>
		<contour>
			<point x="53" y="658" type="line"/>
			<point x="53" y="628" type="line"/>
			<point x="701" y="628" type="line"/>
			<point x="701" y="658" type="line"/>
		</contour>
		<contour>
			<point x="38" y="-10" type="line"/>
			<point x="38" y="-40" type="line"/>
			<point x="714" y="-40" type="line"/>
			<point x="714" y="-10" type="line"/>
		</contour>
		<contour>
			<point x="233" y="839" type="line"/>
			<point x="233" y="677" type="line"/>
			<point x="255" y="677" type="line"/>
			<point x="255" y="839" type="line"/>
		</contour>
		<contour>
			<point x="491" y="839" type="line"/>
			<point x="491" y="677" type="line"/>
			<point x="514" y="677" type="line"/>
			<point x="514" y="839" type="line"/>
		</contour>
		<contour>
			<point x="362" y="569" type="line"/>
			<point x="362" y="389" type="line"/>
			<point x="385" y="389" type="line"/>
			<point x="385" y="569" type="line"/>
		</contour>
		<contour>
			<point x="151" y="464" type="line"/>
			<point x="603" y="464" type="line"/>
			<point x="603" y="406" type="line"/>
			<point x="151" y="406" type="line"/>
		</contour>
		<contour>
			<point x="151" y="550" type="line"/>
			<point x="603" y="550" type="line"/>
			<point x="603" y="494" type="line"/>
			<point x="151" y="494" type="line"/>
		</contour>
		<contour>
			<point x="128" y="580" type="line"/>
			<point x="128" y="376" type="line"/>
			<point x="626" y="376" type="line"/>
			<point x="626" y="580" type="line"/>
		</contour>
		<contour>
			<point x="362" y="242" type="line"/>
			<point x="362" y="53" type="line"/>
			<point x="385" y="53" type="line"/>
			<point x="385" y="242" type="line"/>
		</contour>
		<contour>
			<point x="133" y="133" type="line"/>
			<point x="618" y="133" type="line"/>
			<point x="618" y="71" type="line"/>
			<point x="133" y="71" type="line"/>
		</contour>
		<contour>
			<point x="133" y="223" type="line"/>
			<point x="618" y="223" type="line"/>
			<point x="618" y="163" type="line"/>
			<point x="133" y="163" type="line"/>
		</contour>
		<contour>
			<point x="110" y="253" type="line"/>
			<point x="110" y="41" type="line"/>
			<point x="641" y="41" type="line"/>
			<point x="641" y="253" type="line"/>
		</contour>
	</outline>
</glyph>
<glyph name="c6449" format="1">
	<advance width="750"/>
	<outline>
		<contour>
			<point x="40" y="761" type="line"/>
			<point x="40" y="731" type="line"/>
			<point x="712" y="731" type="line"/>
			<point x="712" y="761" type="line"/>
		</contour>
		<contour>
			<point x="110" y="300" type="line"/>
			<point x="110" y="270" type="line"/>
			<point x="638" y="270" type="line"/>
			<point x="638" y="300" type="line"/>
		</contour>
		<contour>
			<point x="239" y="839" type="line"/>
			<point x="239" y="668" type="line"/>
			<point x="261" y="668" type="line"/>
			<point x="261" y="839" type="line"/>
		</contour>
		<contour>
			<point x="485" y="839" type="line"/>
			<point x="485" y="668" type="line"/>
			<point x="508" y="668" type="line"/>
			<point x="508" y="839" type="line"/>
		</contour>
		<contour>
			<point x="473" y="620" type="line"/>
			<point x="626" y="620" type="line"/>
			<point x="626" y="499" type="line"/>
			<point x="473" y="499" type="line"/>
		</contour>
		<contour>
			<point x="301" y="620" type="line"/>
			<point x="451" y="620" type="line"/>
			<point x="451" y="499" type="line"/>
			<point x="301" y="499" type="line"/>
		</contour>
		<contour>
			<point x="134" y="620" type="line"/>
			<point x="278" y="620" type="line"/>
			<point x="278" y="499" type="line"/>
			<point x="134" y="499" type="line"/>
		</contour>
		<contour>
			<point x="112" y="650" type="line"/>
			<point x="112" y="469" type="line"/>
			<point x="649" y="469" type="line"/>
			<point x="649" y="650" type="line"/>
		</contour>
		<contour>
			<point x="58" y="410" type="line"/>
			<point x="58" y="280" type="line"/>
			<point x="80" y="280" type="line"/>
			<point x="80" y="380" type="line"/>
			<point x="670" y="380" type="line"/>
			<point x="670" y="280" type="line"/>
			<point x="692" y="280" type="line"/>
			<point x="692" y="410" type="line"/>
		</contour>
		<contour>
			<point x="235" y="287" type="line"/>
			<point x="197" y="225"/>
			<point x="128" y="152"/>
			<point x="39" y="98" type="curve"/>
			<point x="45" y="94"/>
			<point x="53" y="85"/>
			<point x="57" y="78" type="curve"/>
			<point x="148" y="136"/>
			<point x="217" y="211"/>
			<point x="261" y="281" type="curve"/>
		</contour>
		<contour>
			<point x="354" y="203" type="line"/>
			<point x="354" y="196" type="line"/>
			<point x="305" y="57"/>
			<point x="173" y="-24"/>
			<point x="52" y="-55" type="curve"/>
			<point x="56" y="-61"/>
			<point x="62" y="-73"/>
			<point x="65" y="-81" type="curve"/>
			<point x="191" y="-44"/>
			<point x="324" y="40"/>
			<point x="378" y="194" type="curve"/>
			<point x="364" y="205" type="line"/>
			<point x="359" y="203" type="line"/>
		</contour>
		<contour>
			<point x="110" y="131" type="line"/>
			<point x="158" y="106"/>
			<point x="215" y="60"/>
			<point x="243" y="25" type="curve"/>
			<point x="263" y="44" type="line"/>
			<point x="233" y="78"/>
			<point x="176" y="123"/>
			<point x="128" y="148" type="curve"/>
		</contour>
		<contour>
			<point x="182" y="203" type="line"/>
			<point x="160" y="173" type="line"/>
			<point x="362" y="173" type="line"/>
			<point x="362" y="203" type="line"/>
		</contour>
		<contour>
			<point x="417" y="277" type="line"/>
			<point x="417" y="1" type="line"/>
			<point x="417" y="-51"/>
			<point x="433" y="-60"/>
			<point x="491" y="-60" type="curve"/>
			<point x="503" y="-60"/>
			<point x="639" y="-60"/>
			<point x="653" y="-60" type="curve"/>
			<point x="699" y="-60"/>
			<point x="708" y="-39"/>
			<point x="711" y="49" type="curve"/>
			<point x="704" y="51"/>
			<point x="695" y="56"/>
			<point x="689" y="62" type="curve"/>
			<point x="686" y="-19"/>
			<point x="682" y="-30"/>
			<point x="651" y="-30" type="curve"/>
			<point x="623" y="-30"/>
			<point x="508" y="-30"/>
			<point x="488" y="-30" type="curve"/>
			<point x="446" y="-30"/>
			<point x="440" y="-24"/>
			<point x="440" y="1" type="curve"/>
			<point x="440" y="277" type="line"/>
		</contour>
		<contour>
			<point x="648" y="215" type="line"/>
			<point x="599" y="183"/>
			<point x="504" y="150"/>
			<point x="424" y="127" type="curve"/>
			<point x="428" y="120"/>
			<point x="431" y="110"/>
			<point x="433" y="103" type="curve"/>
			<point x="515" y="125"/>
			<point x="610" y="157"/>
			<point x="671" y="193" type="curve"/>
		</contour>
	</outline>
</glyph>
<glyph name="c6550" format="1">
	<advance width="750"/>
	<outline>
		<contour>
			<point x="164" y="518" type="line"/>
			<point x="590" y="518" type="line"/>
			<point x="590" y="434" type="line"/>
			<point x="164" y="434" type="line"/>
		</contour>
		<contour>
			<point x="164" y="630" type="line"/>
			<point x="590" y="630" type="line"/>
			<point x="590" y="548" type="line"/>
			<point x="164" y="548" type="line"/>
		</contour>
		<contour>
			<point x="142" y="660" type="line"/>
			<point x="142" y="404" type="line"/>
			<point x="612" y="404" type="line"/>
			<point x="612" y="660" type="line"/>
		</contour>
		<contour>
			<point x="36" y="337" type="line"/>
			<point x="36" y="307" type="line"/>
			<point x="715" y="307" type="line"/>
			<point x="715" y="337" type="line"/>
		</contour>
		<contour>
			<point x="290" y="420" type="line"/>
			<point x="253" y="321"/>
			<point x="161" y="207"/>
			<point x="26" y="138" type="curve"/>
			<point x="32" y="132"/>
			<point x="38" y="123"/>
			<point x="41" y="116" type="curve"/>
			<point x="182" y="190"/>
			<point x="272" y="305"/>
			<point x="316" y="414" type="curve"/>
		</contour>
		<contour>
			<point x="512" y="329" type="curve"/>
			<point x="494" y="317" type="line"/>
			<point x="542" y="241"/>
			<point x="635" y="163"/>
			<point x="709" y="127" type="curve"/>
			<point x="713" y="135"/>
			<point x="719" y="145"/>
			<point x="725" y="151" type="curve"/>
			<point x="650" y="183"/>
			<point x="558" y="256"/>
		</contour>
		<contour>
			<point x="42" y="761" type="line"/>
			<point x="42" y="731" type="line"/>
			<point x="711" y="731" type="line"/>
			<point x="711" y="761" type="line"/>
		</contour>
		<contour>
			<point x="233" y="839" type="line"/>
			<point x="233" y="677" type="line"/>
			<point x="255" y="677" type="line"/>
			<point x="255" y="839" type="line"/>
		</contour>
		<contour>
			<point x="491" y="839" type="line"/>
			<point x="491" y="677" type="line"/>
			<point x="514" y="677" type="line"/>
			<point x="514" y="839" type="line"/>
		</contour>
		<contour>
			<point x="362" y="314" type="line"/>
			<point x="362" y="-33" type="line"/>
			<point x="384" y="-33" type="line"/>
			<point x="384" y="314" type="line"/>
		</contour>
		<contour>
			<point x="183" y="197" type="line"/>
			<point x="569" y="197" type="line"/>
			<point x="569" y="106" type="line"/>
			<point x="183" y="106" type="line"/>
		</contour>
		<contour>
			<point x="161" y="227" type="line"/>
			<point x="161" y="76" type="line"/>
			<point x="591" y="76" type="line"/>
			<point x="591" y="227" type="line"/>
		</contour>
		<contour>
			<point x="98" y="-22" type="curve"/>
			<point x="100" y="-54" type="line"/>
			<point x="232" y="-52"/>
			<point x="435" y="-46"/>
			<point x="628" y="-40" type="curve"/>
			<point x="629" y="-13" type="line"/>
			<point x="432" y="-18"/>
			<point x="225" y="-22"/>
		</contour>
		<contour>
			<point x="525" y="42" type="line"/>
			<point x="578" y="3"/>
			<point x="644" y="-58"/>
			<point x="677" y="-98" type="curve"/>
			<point x="694" y="-76" type="line"/>
			<point x="660" y="-38"/>
			<point x="593" y="22"/>
			<point x="541" y="61" type="curve"/>
		</contour>
	</outline>
</glyph>
<glyph name="c7225" format="1">
	<advance width="750"/>
	<outline>
		<contour>
			<point x="305" y="163" type="line"/>
			<point x="305" y="133" type="line"/>
			<point x="720" y="133" type="line"/>
			<point x="720" y="163" type="line"/>
		</contour>
		<contour>
			<point x="318" y="345" type="line"/>
			<point x="318" y="315" type="line"/>
			<point x="707" y="315" type="line"/>
			<point x="707" y="345" type="line"/>
		</contour>
		<contour>
			<point x="333" y="804" type="line"/>
			<point x="333" y="774" type="line"/>
			<point x="464" y="774" type="line"/>
			<point x="464" y="658" type="line"/>
			<point x="333" y="658" type="line"/>
			<point x="333" y="628" type="line"/>
			<point x="487" y="628" type="line"/>
			<point x="487" y="804" type="line"/>
		</contour>
		<contour>
			<point x="414" y="452" type="line"/>
			<point x="414" y="146" type="line"/>
			<point x="437" y="146" type="line"/>
			<point x="437" y="452" type="line"/>
		</contour>
		<contour>
			<point x="582" y="452" type="line"/>
			<point x="582" y="146" type="line"/>
			<point x="605" y="146" type="line"/>
			<point x="605" y="452" type="line"/>
		</contour>
		<contour>
			<point x="321" y="804" type="line"/>
			<point x="321" y="529" type="line"/>
			<point x="321" y="486"/>
			<point x="332" y="478"/>
			<point x="370" y="478" type="curve"/>
			<point x="378" y="478"/>
			<point x="449" y="478"/>
			<point x="456" y="478" type="curve"/>
			<point x="487" y="478"/>
			<point x="494" y="496"/>
			<point x="497" y="570" type="curve"/>
			<point x="490" y="572"/>
			<point x="482" y="576"/>
			<point x="476" y="582" type="curve"/>
			<point x="474" y="515"/>
			<point x="471" y="506"/>
			<point x="453" y="506" type="curve"/>
			<point x="439" y="506"/>
			<point x="380" y="506"/>
			<point x="370" y="506" type="curve"/>
			<point x="347" y="506"/>
			<point x="344" y="510"/>
			<point x="344" y="529" type="curve"/>
			<point x="344" y="804" type="line"/>
		</contour>
		<contour>
			<point x="543" y="804" type="line"/>
			<point x="543" y="774" type="line"/>
			<point x="677" y="774" type="line"/>
			<point x="677" y="658" type="line"/>
			<point x="543" y="658" type="line"/>
			<point x="543" y="628" type="line"/>
			<point x="699" y="628" type="line"/>
			<point x="699" y="804" type="line"/>
		</contour>
		<contour>
			<point x="531" y="804" type="line"/>
			<point x="531" y="530" type="line"/>
			<point x="531" y="486"/>
			<point x="542" y="478"/>
			<point x="583" y="478" type="curve"/>
			<point x="591" y="478"/>
			<point x="670" y="478"/>
			<point x="679" y="478" type="curve"/>
			<point x="710" y="478"/>
			<point x="719" y="496"/>
			<point x="721" y="570" type="curve"/>
			<point x="714" y="572"/>
			<point x="705" y="576"/>
			<point x="700" y="582" type="curve"/>
			<point x="698" y="515"/>
			<point x="695" y="506"/>
			<point x="676" y="506" type="curve"/>
			<point x="660" y="506"/>
			<point x="594" y="506"/>
			<point x="583" y="506" type="curve"/>
			<point x="557" y="506"/>
			<point x="554" y="511"/>
			<point x="554" y="530" type="curve"/>
			<point x="554" y="804" type="line"/>
		</contour>
		<contour>
			<point x="560" y="72" type="line"/>
			<point x="614" y="28"/>
			<point x="680" y="-37"/>
			<point x="713" y="-78" type="curve"/>
			<point x="730" y="-57" type="line"/>
			<point x="695" y="-16"/>
			<point x="629" y="47"/>
			<point x="575" y="90" type="curve"/>
		</contour>
		<contour>
			<point x="437" y="92" type="line"/>
			<point x="404" y="40"/>
			<point x="335" y="-20"/>
			<point x="275" y="-56" type="curve"/>
			<point x="281" y="-63"/>
			<point x="287" y="-74"/>
			<point x="290" y="-81" type="curve"/>
			<point x="350" y="-43"/>
			<point x="419" y="17"/>
			<point x="462" y="76" type="curve"/>
		</contour>
		<contour>
			<point x="79" y="547" type="line"/>
			<point x="79" y="-83" type="line"/>
			<point x="101" y="-83" type="line"/>
			<point x="101" y="547" type="line"/>
		</contour>
		<contour>
			<point x="92" y="426" type="line"/>
			<point x="92" y="396" type="line"/>
			<point x="272" y="396" type="line"/>
			<point x="272" y="426" type="line"/>
		</contour>
		<contour>
			<point x="110" y="653" type="line"/>
			<point x="110" y="623" type="line"/>
			<point x="262" y="623" type="line"/>
			<point x="262" y="653" type="line"/>
		</contour>
		<contour>
			<point x="90" y="186" type="line"/>
			<point x="90" y="156" type="line"/>
			<point x="287" y="156" type="line"/>
			<point x="287" y="186" type="line"/>
		</contour>
		<contour>
			<point x="90" y="61" type="line"/>
			<point x="90" y="31" type="line"/>
			<point x="293" y="31" type="line"/>
			<point x="293" y="61" type="line"/>
		</contour>
		<contour>
			<point x="91" y="547" type="line"/>
			<point x="91" y="517" type="line"/>
			<point x="260" y="517" type="line"/>
			<point x="260" y="299" type="line"/>
			<point x="91" y="299" type="line"/>
			<point x="91" y="269" type="line"/>
			<point x="283" y="269" type="line"/>
			<point x="283" y="547" type="line"/>
		</contour>
		<contour>
			<point x="163" y="839" type="line"/>
			<point x="134" y="762"/>
			<point x="83" y="660"/>
			<point x="14" y="582" type="curve"/>
			<point x="20" y="578"/>
			<point x="29" y="570"/>
			<point x="33" y="563" type="curve"/>
			<point x="103" y="645"/>
			<point x="153" y="747"/>
			<point x="184" y="819" type="curve"/>
			<point x="184" y="829" type="line"/>
			<point x="176" y="829" type="line"/>
			<point x="176" y="839" type="line"/>
		</contour>
		<contour>
			<point x="170" y="839" type="line"/>
			<point x="170" y="817" type="line"/>
			<point x="176" y="817" type="line"/>
			<point x="221" y="762"/>
			<point x="273" y="679"/>
			<point x="299" y="628" type="curve"/>
			<point x="317" y="652" type="line"/>
			<point x="291" y="702"/>
			<point x="237" y="782"/>
			<point x="191" y="839" type="curve"/>
		</contour>
	</outline>
</glyph>
<glyph name="c7253" format="1">
	<advance width="750"/>
	<outline>
		<contour>
			<point x="41" y="767" type="line"/>
			<point x="41" y="737" type="line"/>
			<point x="710" y="737" type="line"/>
			<point x="710" y="767" type="line"/>
		</contour>
		<contour>
			<point x="233" y="839" type="line"/>
			<point x="233" y="686" type="line"/>
			<point x="255" y="686" type="line"/>
			<point x="255" y="839" type="line"/>
		</contour>
		<contour>
			<point x="491" y="839" type="line"/>
			<point x="491" y="686" type="line"/>
			<point x="514" y="686" type="line"/>
			<point x="514" y="839" type="line"/>
		</contour>
		<contour>
			<point x="167" y="551" type="line"/>
			<point x="596" y="551" type="line"/>
			<point x="596" y="489" type="line"/>
			<point x="167" y="489" type="line"/>
		</contour>
		<contour>
			<point x="167" y="641" type="line"/>
			<point x="596" y="641" type="line"/>
			<point x="596" y="581" type="line"/>
			<point x="167" y="581" type="line"/>
		</contour>
		<contour>
			<point x="145" y="671" type="line"/>
			<point x="145" y="459" type="line"/>
			<point x="618" y="459" type="line"/>
			<point x="618" y="671" type="line"/>
		</contour>
		<contour>
			<point x="36" y="408" type="line"/>
			<point x="36" y="378" type="line"/>
			<point x="715" y="378" type="line"/>
			<point x="715" y="408" type="line"/>
		</contour>
		<contour>
			<point x="178" y="248" type="line"/>
			<point x="178" y="218" type="line"/>
			<point x="593" y="218" type="line"/>
			<point x="593" y="248" type="line"/>
		</contour>
		<contour>
			<point x="178" y="170" type="line"/>
			<point x="178" y="140" type="line"/>
			<point x="600" y="140" type="line"/>
			<point x="600" y="170" type="line"/>
		</contour>
		<contour>
			<point x="167" y="91" type="line"/>
			<point x="167" y="61" type="line"/>
			<point x="629" y="61" type="line"/>
			<point x="629" y="91" type="line"/>
		</contour>
		<contour>
			<point x="272" y="473" type="line"/>
			<point x="237" y="381"/>
			<point x="152" y="277"/>
			<point x="27" y="212" type="curve"/>
			<point x="32" y="207"/>
			<point x="40" y="198"/>
			<point x="44" y="190" type="curve"/>
			<point x="173" y="260"/>
			<point x="256" y="366"/>
			<point x="297" y="467" type="curve"/>
		</contour>
		<contour>
			<point x="521" y="402" type="curve"/>
			<point x="502" y="390" type="line"/>
			<point x="548" y="310"/>
			<point x="639" y="229"/>
			<point x="714" y="191" type="curve"/>
			<point x="718" y="199"/>
			<point x="725" y="210"/>
			<point x="730" y="216" type="curve"/>
			<point x="654" y="249"/>
			<point x="565" y="325"/>
		</contour>
		<contour>
			<point x="362" y="314" type="line"/>
			<point x="362" y="75" type="line"/>
			<point x="385" y="75" type="line"/>
			<point x="385" y="314" type="line"/>
		</contour>
		<contour>
			<point x="622" y="91" type="line"/>
			<point x="622" y="85" type="line"/>
			<point x="616" y="-2"/>
			<point x="611" y="-36"/>
			<point x="603" y="-46" type="curve"/>
			<point x="599" y="-52"/>
			<point x="594" y="-53"/>
			<point x="585" y="-53" type="curve"/>
			<point x="577" y="-53"/>
			<point x="554" y="-52"/>
			<point x="528" y="-49" type="curve"/>
			<point x="532" y="-57"/>
			<point x="534" y="-70"/>
			<point x="535" y="-78" type="curve"/>
			<point x="556" y="-80"/>
			<point x="578" y="-81"/>
			<point x="589" y="-80" type="curve"/>
			<point x="605" y="-80"/>
			<point x="612" y="-76"/>
			<point x="620" y="-67" type="curve"/>
			<point x="632" y="-52"/>
			<point x="637" y="-17"/>
			<point x="644" y="72" type="curve"/>
			<point x="644" y="79"/>
			<point x="645" y="91"/>
			<point x="645" y="91" type="curve"/>
		</contour>
		<contour>
			<point x="150" y="57" type="line"/>
			<point x="137" y="11"/>
			<point x="113" y="-35"/>
			<point x="79" y="-58" type="curve"/>
			<point x="94" y="-79" type="line"/>
			<point x="133" y="-51"/>
			<point x="156" y="0"/>
			<point x="169" y="46" type="curve"/>
		</contour>
		<contour>
			<point x="251" y="43" type="line"/>
			<point x="261" y="5"/>
			<point x="269" y="-44"/>
			<point x="269" y="-76" type="curve"/>
			<point x="290" y="-70" type="line"/>
			<point x="290" y="-39"/>
			<point x="282" y="11"/>
			<point x="271" y="48" type="curve"/>
		</contour>
		<contour>
			<point x="356" y="42" type="line"/>
			<point x="372" y="10"/>
			<point x="387" y="-34"/>
			<point x="392" y="-64" type="curve"/>
			<point x="413" y="-54" type="line"/>
			<point x="407" y="-25"/>
			<point x="392" y="19"/>
			<point x="374" y="51" type="curve"/>
		</contour>
		<contour>
			<point x="462" y="46" type="line"/>
			<point x="481" y="23"/>
			<point x="501" y="-9"/>
			<point x="511" y="-32" type="curve"/>
			<point x="527" y="-18" type="line"/>
			<point x="518" y="4"/>
			<point x="497" y="36"/>
			<point x="478" y="58" type="curve"/>
		</contour>
		<contour>
			<point x="192" y="325" type="line"/>
			<point x="180" y="295" type="line"/>
			<point x="554" y="295" type="line"/>
			<point x="554" y="325" type="line"/>
		</contour>
		<contour>
			<point x="167" y="302" type="line"/>
			<point x="167" y="78" type="line"/>
			<point x="189" y="78" type="line"/>
			<point x="189" y="325" type="line"/>
		</contour>
	</outline>
</glyph>
<glyph name="c7716" format="1">
	<advance width="750"/>
	<outline>
		<contour>
			<point x="280" y="801" type="line"/>
			<point x="280" y="519" type="line"/>
			<point x="280" y="473"/>
			<point x="291" y="466"/>
			<point x="333" y="466" type="curve"/>
			<point x="341" y="466"/>
			<point x="422" y="466"/>
			<point x="431" y="466" type="curve"/>
			<point x="465" y="466"/>
			<point x="473" y="485"/>
			<point x="476" y="561" type="curve"/>
			<point x="469" y="564"/>
			<point x="460" y="568"/>
			<point x="454" y="574" type="curve"/>
			<point x="452" y="505"/>
			<point x="449" y="496"/>
			<point x="429" y="496" type="curve"/>
			<point x="413" y="496"/>
			<point x="344" y="496"/>
			<point x="332" y="496" type="curve"/>
			<point x="306" y="496"/>
			<point x="302" y="500"/>
			<point x="302" y="519" type="curve"/>
			<point x="302" y="801" type="line"/>
		</contour>
		<contour>
			<point x="290" y="801" type="line"/>
			<point x="290" y="771" type="line"/>
			<point x="437" y="771" type="line"/>
			<point x="437" y="655" type="line"/>
			<point x="290" y="655" type="line"/>
			<point x="290" y="625" type="line"/>
			<point x="460" y="625" type="line"/>
			<point x="460" y="801" type="line"/>
		</contour>
		<contour>
			<point x="509" y="801" type="line"/>
			<point x="509" y="520" type="line"/>
			<point x="509" y="474"/>
			<point x="521" y="466"/>
			<point x="565" y="466" type="curve"/>
			<point x="574" y="466"/>
			<point x="662" y="466"/>
			<point x="671" y="466" type="curve"/>
			<point x="706" y="466"/>
			<point x="714" y="485"/>
			<point x="716" y="562" type="curve"/>
			<point x="710" y="565"/>
			<point x="701" y="569"/>
			<point x="695" y="575" type="curve"/>
			<point x="692" y="505"/>
			<point x="689" y="496"/>
			<point x="668" y="496" type="curve"/>
			<point x="650" y="496"/>
			<point x="577" y="496"/>
			<point x="564" y="496" type="curve"/>
			<point x="536" y="496"/>
			<point x="532" y="500"/>
			<point x="532" y="520" type="curve"/>
			<point x="532" y="801" type="line"/>
		</contour>
		<contour>
			<point x="520" y="801" type="line"/>
			<point x="520" y="771" type="line"/>
			<point x="671" y="771" type="line"/>
			<point x="671" y="655" type="line"/>
			<point x="520" y="655" type="line"/>
			<point x="520" y="625" type="line"/>
			<point x="694" y="625" type="line"/>
			<point x="694" y="801" type="line"/>
		</contour>
		<contour>
			<point x="278" y="334" type="line"/>
			<point x="278" y="304" type="line"/>
			<point x="693" y="304" type="line"/>
			<point x="693" y="334" type="line"/>
		</contour>
		<contour>
			<point x="237" y="155" type="line"/>
			<point x="237" y="125" type="line"/>
			<point x="720" y="125" type="line"/>
			<point x="720" y="155" type="line"/>
		</contour>
		<contour>
			<point x="381" y="438" type="line"/>
			<point x="381" y="132" type="line"/>
			<point x="404" y="132" type="line"/>
			<point x="404" y="438" type="line"/>
		</contour>
		<contour>
			<point x="558" y="438" type="line"/>
			<point x="558" y="132" type="line"/>
			<point x="581" y="132" type="line"/>
			<point x="581" y="438" type="line"/>
		</contour>
		<contour>
			<point x="386" y="84" type="line"/>
			<point x="350" y="27"/>
			<point x="287" y="-25"/>
			<point x="230" y="-60" type="curve"/>
			<point x="236" y="-66"/>
			<point x="245" y="-78"/>
			<point x="248" y="-84" type="curve"/>
			<point x="304" y="-46"/>
			<point x="369" y="13"/>
			<point x="407" y="75" type="curve"/>
		</contour>
		<contour>
			<point x="542" y="60" type="line"/>
			<point x="600" y="20"/>
			<point x="669" y="-40"/>
			<point x="704" y="-81" type="curve"/>
			<point x="720" y="-58" type="line"/>
			<point x="685" y="-17"/>
			<point x="615" y="41"/>
			<point x="558" y="80" type="curve"/>
		</contour>
		<contour>
			<point x="19" y="294" type="curve"/>
			<point x="29" y="263" type="line"/>
			<point x="91" y="293"/>
			<point x="176" y="334"/>
			<point x="257" y="373" type="curve"/>
			<point x="253" y="404" type="line"/>
			<point x="165" y="362"/>
			<point x="77" y="320"/>
		</contour>
		<contour>
			<point x="29" y="621" type="line"/>
			<point x="29" y="591" type="line"/>
			<point x="259" y="591" type="line"/>
			<point x="259" y="621" type="line"/>
		</contour>
		<contour>
			<point x="140" y="839" type="line"/>
			<point x="140" y="-32" type="line"/>
			<point x="140" y="-47"/>
			<point x="135" y="-51"/>
			<point x="125" y="-51" type="curve"/>
			<point x="116" y="-52"/>
			<point x="84" y="-52"/>
			<point x="45" y="-51" type="curve"/>
			<point x="49" y="-60"/>
			<point x="53" y="-73"/>
			<point x="54" y="-80" type="curve"/>
			<point x="102" y="-81"/>
			<point x="128" y="-80"/>
			<point x="141" y="-75" type="curve"/>
			<point x="155" y="-69"/>
			<point x="162" y="-59"/>
			<point x="162" y="-32" type="curve"/>
			<point x="162" y="839" type="line"/>
		</contour>
	</outline>
</glyph>
<glyph name="c8611" format="1">
	<advance width="750"/>
	<outline>
		<contour>
			<point x="146" y="451" type="line"/>
			<point x="612" y="451" type="line"/>
			<point x="612" y="303" type="line"/>
			<point x="146" y="303" type="line"/>
		</contour>
		<contour>
			<point x="123" y="481" type="line"/>
			<point x="123" y="273" type="line"/>
			<point x="635" y="273" type="line"/>
			<point x="635" y="481" type="line"/>
		</contour>
		<contour>
			<point x="44" y="768" type="line"/>
			<point x="44" y="738" type="line"/>
			<point x="706" y="738" type="line"/>
			<point x="706" y="768" type="line"/>
		</contour>
		<contour>
			<point x="45" y="564" type="line"/>
			<point x="45" y="534" type="line"/>
			<point x="707" y="534" type="line"/>
			<point x="707" y="564" type="line"/>
		</contour>
		<contour>
			<point x="74" y="218" type="line"/>
			<point x="74" y="188" type="line"/>
			<point x="682" y="188" type="line"/>
			<point x="682" y="218" type="line"/>
		</contour>
		<contour>
			<point x="41" y="120" type="line"/>
			<point x="41" y="90" type="line"/>
			<point x="710" y="90" type="line"/>
			<point x="710" y="120" type="line"/>
		</contour>
		<contour>
			<point x="233" y="839" type="line"/>
			<point x="233" y="677" type="line"/>
			<point x="255" y="677" type="line"/>
			<point x="255" y="839" type="line"/>
		</contour>
		<contour>
			<point x="491" y="839" type="line"/>
			<point x="491" y="686" type="line"/>
			<point x="514" y="686" type="line"/>
			<point x="514" y="839" type="line"/>
		</contour>
		<contour>
			<point x="361" y="646" type="line"/>
			<point x="361" y="101" type="line"/>
			<point x="383" y="101" type="line"/>
			<point x="383" y="646" type="line"/>
		</contour>
		<contour>
			<point x="150" y="70" type="line"/>
			<point x="134" y="13"/>
			<point x="100" y="-36"/>
			<point x="45" y="-60" type="curve"/>
			<point x="61" y="-82" type="line"/>
			<point x="120" y="-53"/>
			<point x="152" y="1"/>
			<point x="170" y="60" type="curve"/>
		</contour>
		<contour>
			<point x="261" y="59" type="line"/>
			<point x="274" y="17"/>
			<point x="284" y="-38"/>
			<point x="287" y="-72" type="curve"/>
			<point x="310" y="-65" type="line"/>
			<point x="308" y="-32"/>
			<point x="296" y="22"/>
			<point x="284" y="63" type="curve"/>
		</contour>
		<contour>
			<point x="404" y="59" type="line"/>
			<point x="428" y="18"/>
			<point x="452" y="-38"/>
			<point x="461" y="-75" type="curve"/>
			<point x="481" y="-61" type="line"/>
			<point x="472" y="-25"/>
			<point x="447" y="30"/>
			<point x="423" y="70" type="curve"/>
		</contour>
		<contour>
			<point x="553" y="57" type="line"/>
			<point x="602" y="17"/>
			<point x="659" y="-42"/>
			<point x="688" y="-82" type="curve"/>
			<point x="704" y="-62" type="line"/>
			<point x="675" y="-22"/>
			<point x="617" y="35"/>
			<point x="569" y="74" type="curve"/>
		</contour>
		<contour>
			<point x="611" y="685" type="line"/>
			<point x="499" y="663"/>
			<point x="281" y="650"/>
			<point x="104" y="648" type="curve"/>
			<point x="107" y="640"/>
			<point x="110" y="629"/>
			<point x="110" y="621" type="curve"/>
			<point x="289" y="622"/>
			<point x="505" y="636"/>
			<point x="634" y="660" type="curve"/>
		</contour>
		<contour>
			<point x="218" y="423" type="line"/>
			<point x="239" y="390"/>
			<point x="260" y="345"/>
			<point x="270" y="316" type="curve"/>
			<point x="290" y="329" type="line"/>
			<point x="281" y="358"/>
			<point x="259" y="402"/>
			<point x="238" y="434" type="curve"/>
		</contour>
		<contour>
			<point x="504" y="439" type="line"/>
			<point x="491" y="406"/>
			<point x="465" y="354"/>
			<point x="446" y="322" type="curve"/>
			<point x="464" y="311" type="line"/>
			<point x="484" y="341"/>
			<point x="507" y="386"/>
			<point x="526" y="426" type="curve"/>
		</contour>
	</outline>
</glyph>
